<?xml version="1.0" standalone="no"?>
<!DOCTYPE svg PUBLIC "-//W3C//DTD SVG 20010904//EN"
 "http://www.w3.org/TR/2001/REC-SVG-20010904/DTD/svg10.dtd">
<svg version="1.0" xmlns="http://www.w3.org/2000/svg"
 width="612.000000pt" height="428.000000pt" viewBox="0 0 612.000000 428.000000"
 preserveAspectRatio="xMidYMid meet">

<g transform="translate(0.000000,428.000000) scale(0.100000,-0.100000)"
fill="#000000" stroke="none">
<path d="M3384 4120 c-47 -10 -147 -57 -184 -89 -36 -30 -4 -27 42 4 74 50
136 69 233 69 80 0 97 -3 157 -31 43 -20 90 -54 130 -92 34 -34 63 -61 65 -61
2 0 3 6 3 14 0 22 -111 118 -172 148 -87 44 -179 56 -274 38z"/>
<path d="M3345 3937 c-27 -13 -61 -36 -74 -51 -29 -31 -20 -34 19 -6 47 33
113 60 151 60 60 0 138 -29 180 -67 44 -40 66 -38 28 3 -41 44 -117 77 -189
81 -54 3 -74 0 -115 -20z"/>
<path d="M3370 3832 c-27 -12 -64 -41 -59 -46 3 -3 24 4 47 15 35 18 47 19 74
10 18 -6 42 -21 55 -33 29 -27 43 -16 17 13 -38 42 -94 59 -134 41z"/>
<path d="M2723 3730 c-62 -14 -81 -37 -139 -158 -31 -64 -84 -175 -119 -247
-35 -71 -84 -180 -109 -241 -33 -78 -53 -113 -66 -117 -19 -5 -23 -16 -35 -89
-4 -25 -11 -38 -22 -38 -11 0 -14 6 -9 23 17 61 19 99 5 108 -22 14 -24 12
-43 -46 -9 -30 -22 -57 -27 -61 -8 -4 -8 1 -3 17 14 41 11 103 -6 107 -10 2
-22 -17 -39 -60 -13 -35 -41 -89 -63 -120 -52 -77 -63 -111 -48 -147 10 -26 7
-36 -39 -117 -28 -49 -61 -100 -74 -114 -81 -88 -269 -368 -302 -448 -27 -67
-32 -119 -12 -144 6 -9 33 -20 60 -23 42 -7 47 -5 41 10 -6 14 -3 16 14 11 18
-6 21 -4 16 9 -5 11 0 18 15 22 11 3 21 12 21 20 0 8 9 17 20 20 11 3 17 10
13 16 -3 5 1 15 9 21 15 12 32 46 29 59 0 4 6 10 14 13 8 4 15 14 15 24 0 10
7 20 15 24 8 3 12 12 9 21 -4 10 0 15 11 15 12 0 15 5 10 20 -5 16 -2 20 16
20 18 0 20 3 11 12 -20 20 -15 41 8 35 24 -6 27 8 4 17 -23 9 -5 29 22 23 29
-5 32 9 4 18 -29 9 -25 28 5 23 14 -3 25 -1 25 3 0 8 -15 13 -32 10 -15 -2 -8
48 17 121 14 40 25 74 25 75 0 2 21 0 48 -3 35 -4 43 -3 32 5 -8 6 -25 11 -37
11 -13 0 -23 5 -23 11 0 8 14 10 40 6 44 -6 55 7 15 17 -29 7 -34 26 -6 26 31
0 51 -11 51 -28 0 -8 -32 -90 -71 -181 -79 -184 -144 -372 -154 -442 -18 -127
77 -183 415 -244 209 -38 346 -65 540 -107 285 -62 416 -87 523 -98 93 -10
101 -10 177 16 81 26 109 44 71 44 -31 0 -25 16 10 26 35 10 40 30 6 26 -21
-3 -21 -2 4 20 14 13 35 29 45 36 17 11 16 12 -9 7 -43 -9 -31 25 16 48 35 16
55 46 22 33 -8 -3 -22 -9 -30 -12 -19 -8 -20 19 -1 38 7 8 32 20 55 28 22 7
41 17 41 22 0 11 -14 10 -45 -4 -32 -14 -39 -7 -24 25 8 18 28 32 60 43 27 10
49 22 49 27 0 9 -7 8 -69 -9 -43 -12 -7 31 38 45 49 14 69 37 25 28 -16 -3
-37 -9 -48 -13 -16 -6 -17 -4 -8 13 6 11 33 28 59 38 26 10 52 21 57 26 19 17
-2 18 -42 2 -23 -9 -45 -14 -48 -10 -15 15 21 47 73 64 31 11 58 24 60 30 2 6
-18 3 -49 -7 -29 -10 -55 -16 -57 -14 -12 11 15 34 66 54 32 13 62 27 67 31
21 18 -3 18 -52 -1 -67 -26 -76 -25 -58 3 8 12 43 33 78 46 35 14 67 28 73 33
17 15 -23 8 -75 -12 -50 -20 -50 -20 -50 0 0 23 32 41 112 65 32 9 60 21 63
26 9 13 -1 12 -80 -10 -38 -11 -72 -18 -74 -15 -12 11 31 35 113 63 49 17 91
33 94 36 17 16 -15 11 -93 -15 -49 -16 -90 -29 -91 -27 -12 11 13 44 39 54
153 52 187 66 187 75 0 10 -9 8 -125 -33 -44 -15 -81 -26 -83 -25 -1 2 1 11 4
21 7 17 96 65 122 65 23 0 112 42 112 52 0 6 -8 7 -17 3 -10 -4 -60 -22 -111
-40 -67 -23 -91 -28 -87 -18 3 8 5 18 5 23 0 10 78 43 165 69 75 23 103 37 94
45 -3 3 -58 -12 -122 -33 -64 -21 -117 -38 -117 -36 0 14 22 57 26 52 9 -9
234 92 234 105 0 12 -2 11 -110 -37 -103 -46 -120 -51 -120 -36 0 31 110 89
273 144 15 6 25 27 12 27 -2 0 -59 -23 -126 -50 -67 -28 -124 -48 -127 -46
-20 20 64 72 203 126 33 13 65 27 70 33 18 17 -45 -2 -144 -44 -51 -22 -97
-39 -101 -37 -4 2 -4 13 1 26 9 23 19 29 139 72 41 15 76 32 78 39 2 6 -41 -4
-95 -23 -54 -19 -99 -33 -101 -31 -11 10 22 44 48 50 16 4 30 11 30 17 0 6
-13 7 -32 3 -27 -6 -30 -5 -24 11 15 39 88 303 107 388 12 53 17 102 13 120
-8 38 -47 82 -94 106 -35 18 -127 40 -172 42 -31 1 -203 23 -368 47 -140 20
-211 27 -390 36 -58 3 -157 10 -220 15 -63 6 -137 12 -165 14 -27 2 -65 1 -82
-4z m141 -42 c3 -13 6 -34 6 -47 0 -23 -2 -24 -61 -18 -34 3 -77 3 -95 0 -41
-7 -52 -26 -159 -283 -40 -96 -85 -202 -100 -235 -14 -33 -62 -148 -105 -255
-43 -107 -109 -267 -145 -355 -148 -353 -169 -403 -202 -489 -19 -49 -30 -92
-26 -97 10 -10 458 -122 588 -148 55 -10 181 -34 280 -52 99 -18 181 -33 182
-34 1 -1 6 -34 9 -75 l7 -73 -24 7 c-58 16 -262 58 -489 100 -473 89 -542 109
-599 170 -22 23 -23 31 -18 93 7 81 52 218 135 408 33 77 77 190 97 250 21 61
79 198 130 305 52 107 109 233 128 280 70 168 255 537 278 554 17 11 45 16
100 16 71 0 77 -2 83 -22z m56 -12 c0 -11 3 -32 7 -45 5 -19 2 -22 -13 -19
-18 3 -38 60 -29 85 7 20 35 3 35 -21z m62 -20 c5 -22 5 -43 1 -47 -16 -16
-35 9 -40 51 -5 37 -4 42 13 38 12 -2 21 -16 26 -42z m64 -11 c10 -43 9 -46
-9 -43 -14 2 -24 16 -32 46 -12 40 -12 42 9 42 17 0 23 -9 32 -45z m58 23 c3
-13 7 -35 11 -50 4 -23 2 -28 -14 -28 -15 0 -23 10 -30 38 -15 52 -14 62 9 62
12 0 21 -8 24 -22z m71 -34 c3 -25 5 -48 2 -50 -11 -11 -36 10 -42 34 -3 15
-8 35 -11 45 -4 13 1 17 19 17 22 0 26 -6 32 -46z m45 39 c1 -5 5 -27 9 -50 6
-33 5 -43 -5 -43 -17 0 -20 7 -29 58 -6 35 -4 42 9 42 9 0 16 -3 16 -7z m66
-48 c7 -27 13 -51 14 -52 0 -2 -7 -3 -15 -3 -16 0 -28 23 -40 78 -6 29 -4 33
10 30 12 -2 22 -20 31 -53z m55 45 c15 0 10 -27 -7 -34 -19 -7 -15 -50 6 -54
9 -1 24 4 35 12 16 12 18 17 8 27 -20 20 -16 49 6 49 13 0 19 -6 19 -17 -1
-10 2 -35 6 -55 5 -30 4 -38 -8 -38 -8 0 -18 5 -22 11 -4 7 -10 7 -16 1 -19
-19 -48 0 -58 37 -15 53 -13 74 6 67 9 -3 20 -6 25 -6z m122 -37 c3 -21 9 -48
13 -60 5 -17 2 -23 -10 -23 -18 0 -30 25 -39 83 -5 31 -3 37 12 37 13 0 20
-10 24 -37z m50 10 c-2 -6 4 -31 12 -54 9 -23 13 -45 10 -47 -10 -10 -32 23
-48 71 -16 48 -16 48 6 45 12 -2 21 -9 20 -15z m74 -52 c8 -29 12 -55 10 -57
-12 -13 -35 12 -50 54 -22 60 -21 64 5 60 17 -2 25 -14 35 -57z m55 -6 c14
-51 14 -55 -2 -55 -12 0 -21 16 -32 55 -14 51 -14 55 2 55 12 0 21 -16 32 -55z
m34 47 c11 -7 44 -84 44 -102 0 -6 -9 -10 -20 -10 -15 0 -23 12 -35 52 -20 70
-19 81 11 60z m-311 -22 c-3 -5 -10 -10 -16 -10 -5 0 -9 5 -9 10 0 6 7 10 16
10 8 0 12 -4 9 -10z m406 -45 c16 -53 16 -55 -2 -55 -11 0 -19 1 -19 3 0 1 -9
26 -20 55 l-20 52 23 0 c18 0 25 -10 38 -55z m35 47 c14 -9 39 -100 30 -109
-10 -10 -32 18 -45 56 -18 55 -13 72 15 53z m61 -14 c6 -7 15 -26 21 -43 5
-16 13 -38 17 -47 5 -13 2 -15 -14 -11 -17 4 -51 74 -51 105 0 12 16 10 27 -4z
m-897 -12 c69 -8 157 -17 195 -21 39 -3 174 -20 300 -36 396 -52 468 -61 533
-66 42 -4 62 -10 62 -18 0 -13 -13 -60 -115 -409 -25 -87 -91 -280 -146 -430
-56 -149 -120 -325 -144 -391 -24 -66 -74 -199 -113 -295 -38 -96 -75 -195
-82 -220 -20 -76 -23 -78 -77 -69 -371 60 -1367 269 -1389 292 -3 3 105 273
221 552 37 88 106 257 155 375 179 439 255 619 297 703 l23 47 78 0 c42 0 133
-6 202 -14z m973 -33 c20 -57 21 -63 4 -63 -13 0 -47 69 -47 95 0 33 27 12 43
-32z m81 35 c1 -2 11 -27 23 -56 19 -47 20 -53 5 -50 -9 2 -25 26 -36 53 -24
60 -24 60 -32 52 -3 -3 1 -27 10 -53 19 -55 18 -54 8 -54 -8 0 -52 97 -52 114
0 7 70 2 74 -6z m56 -25 c0 -22 48 -123 59 -123 4 0 6 -11 3 -25 -6 -36 -15
-31 -34 18 -9 23 -25 66 -37 95 -17 43 -18 52 -6 52 8 0 15 -7 15 -17z m59
-39 c6 -14 11 -37 10 -52 0 -23 -4 -18 -25 27 -28 63 -28 62 -10 55 7 -3 18
-16 25 -30z m51 -40 c0 -8 -4 -14 -10 -14 -5 0 -10 9 -10 21 0 11 5 17 10 14
6 -3 10 -13 10 -21z m8 -46 c-6 -18 -28 -21 -28 -4 0 9 7 16 16 16 9 0 14 -5
12 -12z m-83 -69 c8 -17 9 -33 2 -50 -9 -22 -10 -20 -28 30 -11 30 -16 64 -13
75 7 20 7 20 17 -4 6 -14 15 -37 22 -51z m75 21 c0 -13 -28 -25 -38 -16 -3 4
0 11 8 16 20 13 30 12 30 0z m-100 -117 c5 -39 0 -67 -9 -57 -16 15 -35 100
-27 120 7 17 9 15 21 -13 7 -17 14 -40 15 -50z m90 73 c0 -16 -14 -36 -26 -36
-14 0 -19 22 -7 33 7 8 33 10 33 3z m-20 -75 c0 -10 -9 -21 -20 -24 -22 -6
-27 12 -8 31 17 17 28 15 28 -7z m-100 -65 c11 -42 7 -86 -9 -86 -11 0 -31 94
-24 118 8 30 18 20 33 -32z m83 -6 c-6 -23 -43 -28 -43 -5 0 15 30 36 41 29 4
-2 5 -13 2 -24z m-113 -91 c9 -40 9 -62 2 -75 -17 -31 -46 84 -31 122 6 16 13
25 14 19 2 -5 8 -35 15 -66z m100 47 c0 -18 -15 -36 -31 -36 -21 0 -22 1 -13
24 5 14 44 24 44 12z m-20 -65 c0 -23 -14 -41 -31 -41 -22 0 -23 4 -9 31 11
19 40 27 40 10z m-110 -71 c14 -56 6 -118 -11 -88 -5 10 -13 48 -16 84 -7 79
8 82 27 4z m86 -15 c-5 -15 -46 -21 -46 -7 0 13 14 29 30 34 17 6 24 -6 16
-27z m-101 -126 c3 -10 2 -20 -3 -23 -10 -6 -42 67 -42 95 0 35 15 27 26 -13
6 -24 15 -50 19 -59z m85 76 c0 -16 -27 -32 -37 -22 -3 4 -3 13 0 22 8 20 37
20 37 0z m-1956 -112 c-29 -57 -34 -77 -25 -86 25 -25 61 22 106 137 16 43 24
53 24 36 1 -14 -15 -56 -34 -94 -36 -68 -41 -101 -17 -101 13 0 15 -10 6 -39
-10 -31 -37 -55 -80 -69 -28 -10 -47 -26 -66 -58 -49 -78 -89 -170 -106 -245
l-17 -74 -42 0 c-28 0 -43 -4 -43 -13 0 -9 12 -11 40 -9 31 3 39 1 35 -9 -4
-10 -20 -13 -55 -11 -32 3 -50 0 -50 -7 0 -6 19 -11 45 -11 25 0 45 -2 45 -5
0 -17 -108 -218 -138 -258 -41 -53 -90 -87 -127 -87 -54 0 -39 97 34 218 62
105 193 292 240 345 25 27 67 89 94 136 44 78 47 89 39 122 -11 43 -2 69 51
146 19 29 43 74 53 100 13 33 20 42 22 29 2 -10 -13 -52 -34 -93z m1939 50
c-12 -34 -43 -44 -43 -15 0 23 8 32 31 32 13 0 17 -5 12 -17z m-103 -42 c13
-39 14 -55 4 -82 -12 -36 -13 -35 -34 34 -11 35 -6 97 8 97 4 0 14 -22 22 -49z
m80 -26 c0 -16 -27 -32 -37 -22 -3 4 -3 13 0 22 8 20 37 20 37 0z m-1800 1 c0
-11 -19 -15 -25 -6 -3 5 1 10 9 10 9 0 16 -2 16 -4z m-90 -16 c0 -5 -4 -10
-10 -10 -5 0 -10 5 -10 10 0 6 5 10 10 10 6 0 10 -4 10 -10z m60 -30 c-6 -11
-16 -20 -23 -19 -9 0 -9 2 1 6 6 2 12 11 12 19 0 8 5 14 10 14 7 0 7 -6 0 -20z
m1715 -29 c15 -47 13 -101 -5 -101 -13 0 -33 98 -26 125 4 14 8 25 10 25 3 0
12 -22 21 -49z m95 15 c0 -17 -27 -46 -41 -46 -6 0 -7 10 -3 23 10 34 44 51
44 23z m-125 -137 c7 -50 -11 -115 -25 -89 -16 29 -21 115 -10 145 11 28 12
29 20 9 5 -12 11 -41 15 -65z m95 56 c0 -8 -9 -19 -20 -25 -15 -8 -20 -8 -20
3 0 14 19 37 32 37 4 0 8 -7 8 -15z m-26 -67 c-7 -25 -27 -42 -32 -28 -5 13
17 50 29 50 6 0 7 -9 3 -22z m-1814 -12 c0 -9 -9 -14 -20 -13 -25 2 -26 14 -2
20 9 3 18 5 20 6 1 0 2 -5 2 -13z m1710 -123 c0 -40 -19 -35 -26 7 -4 22 -10
40 -15 40 -12 0 -11 13 2 47 l12 28 13 -50 c8 -27 14 -60 14 -72z m-1722 86
c-2 -6 -7 -10 -11 -10 -4 1 -18 1 -32 1 -14 0 -25 5 -25 10 0 6 16 10 36 10
21 0 34 -4 32 -11z m1802 -24 c0 -15 -26 -32 -36 -23 -2 3 -2 13 2 22 8 20 34
21 34 1z m-121 -183 c-6 -20 -15 -30 -20 -25 -16 16 -22 126 -9 158 13 30 13
30 27 -35 10 -49 11 -72 2 -98z m101 118 c-12 -23 -40 -27 -40 -6 0 14 14 24
38 25 10 1 10 -4 2 -19z m-20 -58 c0 -21 -19 -42 -38 -42 -9 0 -11 7 -6 23 11
36 44 51 44 19z m-130 -58 c0 -14 5 -34 10 -45 12 -21 3 -89 -10 -89 -13 0
-32 107 -25 140 8 35 25 30 25 -6z m110 -12 c0 -15 -38 -44 -51 -40 -9 3 -6
11 9 26 22 22 42 29 42 14z m-145 -92 c4 -22 11 -42 16 -46 12 -7 11 -27 -2
-61 -10 -26 -12 -26 -19 -8 -12 34 -21 155 -11 155 5 0 12 -18 16 -40z m125
23 c0 -17 -20 -37 -39 -40 -27 -4 -27 12 1 31 24 17 38 20 38 9z m-142 -170
c6 -12 5 -31 -3 -53 l-12 -35 -7 40 c-4 22 -11 57 -16 78 -5 24 -4 48 3 68 12
31 12 31 19 -25 4 -31 11 -64 16 -73z m122 110 c0 -16 -16 -30 -37 -35 -29 -8
-29 6 -1 26 24 17 38 20 38 9z m-26 -68 c-7 -16 -43 -40 -50 -32 -9 8 8 36 24
40 29 8 31 7 26 -8z m-124 -140 c6 -7 5 -25 -2 -48 -11 -36 -28 -50 -28 -24
-1 6 -5 43 -10 82 -6 48 -5 75 3 90 10 18 12 13 19 -34 5 -30 13 -59 18 -66z
m96 69 c-3 -9 -6 -20 -6 -25 0 -5 -9 -9 -20 -9 -22 0 -26 20 -8 38 18 18 41
15 34 -4z m-145 -136 c5 -21 14 -38 19 -38 8 0 -20 -94 -33 -106 -3 -3 -8 21
-12 53 -3 32 -10 69 -14 83 -6 17 -3 39 8 65 l16 40 3 -30 c2 -16 8 -47 13
-67z m109 50 c-29 -24 -39 -23 -33 3 6 23 46 43 52 26 2 -6 -6 -19 -19 -29z
m-20 -63 c-16 -19 -30 -19 -30 0 0 17 33 38 38 24 2 -5 -2 -16 -8 -24z m-136
-77 c4 -35 12 -65 17 -68 9 -6 -11 -70 -22 -70 -7 0 -29 111 -29 148 0 26 10
52 20 52 4 0 11 -28 14 -62z m124 25 c-2 -10 -14 -19 -26 -21 -21 -3 -22 -1
-12 17 13 26 43 28 38 4z m-18 -47 c0 -18 -15 -36 -30 -36 -13 0 -17 5 -13 20
4 16 43 31 43 16z m-139 -93 c16 -64 12 -110 -10 -135 -10 -12 -33 157 -25
187 9 35 15 26 35 -52z m106 12 c-7 -16 -37 -21 -37 -5 0 10 32 31 39 25 2 -2
1 -11 -2 -20z m-147 -234 l-12 -26 -9 23 c-12 32 -15 174 -4 192 16 25 40
-157 25 -189z m130 190 c0 -23 -14 -41 -31 -41 -23 0 -24 13 -3 34 17 18 34
21 34 7z m-551 -63 c4 -13 11 -47 15 -75 6 -49 5 -53 -14 -53 -24 0 -27 6 -34
88 -5 51 -3 62 9 62 9 0 19 -10 24 -22z m56 4 c6 -4 11 -40 13 -79 3 -62 1
-72 -12 -67 -9 4 -17 25 -21 62 -4 32 -9 65 -11 75 -5 17 12 23 31 9z m72 -16
c5 -4 5 -141 0 -139 -24 6 -29 12 -37 48 -5 22 -10 55 -10 73 0 30 2 33 23 26
12 -3 23 -7 24 -8z m403 4 c0 -12 -42 -31 -50 -23 -6 5 30 33 42 33 4 0 8 -5
8 -10z m-342 -88 c2 -46 -1 -72 -8 -72 -16 0 -30 46 -30 101 0 43 3 50 18 47
14 -3 18 -16 20 -76z m56 46 c11 -54 16 -128 9 -128 -26 1 -37 23 -41 84 -4
56 -2 66 12 66 8 0 18 -10 20 -22z m70 -19 c11 -57 7 -109 -8 -109 -21 0 -25
10 -34 79 -8 59 -8 61 13 61 17 0 24 -8 29 -31z m58 -16 c2 -27 6 -55 9 -63 2
-9 -4 -16 -17 -18 -19 -3 -22 3 -26 55 -5 53 1 72 24 73 3 0 8 -21 10 -47z
m138 17 c-11 -20 -50 -28 -50 -10 0 11 29 29 48 30 10 0 10 -5 2 -20z m-36
-61 c-10 -11 -27 -25 -38 -31 -18 -10 -18 -9 0 21 10 18 27 31 38 31 19 0 19
0 0 -21z"/>
<path d="M1952 1840 c0 -19 2 -27 5 -17 2 9 2 25 0 35 -3 9 -5 1 -5 -18z"/>
<path d="M1985 1839 c-8 -12 2 -59 13 -59 4 0 6 16 4 35 -4 37 -7 41 -17 24z"/>
<path d="M2030 1801 c0 -17 5 -31 10 -31 6 0 10 11 10 24 0 14 -4 28 -10 31
-6 4 -10 -7 -10 -24z"/>
<path d="M2070 1791 c0 -11 5 -23 10 -26 6 -4 10 5 10 19 0 14 -4 26 -10 26
-5 0 -10 -9 -10 -19z"/>
<path d="M2120 1786 c0 -9 5 -16 10 -16 6 0 10 4 10 9 0 6 -4 13 -10 16 -5 3
-10 -1 -10 -9z"/>
<path d="M2155 1771 c-3 -5 -1 -12 5 -16 5 -3 10 1 10 9 0 18 -6 21 -15 7z"/>
<path d="M2190 1766 c0 -8 5 -18 10 -21 6 -3 10 3 10 14 0 12 -4 21 -10 21 -5
0 -10 -6 -10 -14z"/>
<path d="M2242 1743 c2 -9 8 -18 15 -20 7 -3 9 3 6 16 -6 25 -26 28 -21 4z"/>
<path d="M2576 1708 c-11 -44 -7 -58 18 -58 12 0 37 -5 55 -11 18 -6 34 -10
36 -8 2 2 6 20 10 40 7 36 7 36 -39 48 -63 16 -73 14 -80 -11z m97 -17 c4 -4
5 -14 2 -23 -5 -12 -13 -13 -45 -4 -38 10 -49 24 -33 40 8 8 64 -2 76 -13z"/>
<path d="M2890 3523 c0 -31 33 -133 42 -133 6 0 7 10 4 23 -4 12 -12 46 -18
75 -12 50 -28 71 -28 35z"/>
<path d="M2945 3504 c9 -53 23 -84 36 -84 6 0 8 7 5 16 -4 9 -11 36 -17 60
-14 53 -34 60 -24 8z"/>
<path d="M2994 3524 c5 -11 12 -35 18 -54 15 -56 17 -62 27 -56 13 8 -22 119
-38 124 -10 3 -12 0 -7 -14z"/>
<path d="M3061 3518 c1 -35 24 -91 39 -96 9 -3 11 0 5 14 -4 11 -12 38 -18 62
-11 45 -28 57 -26 20z"/>
<path d="M3290 3514 c0 -11 7 -29 16 -40 15 -18 15 -18 9 11 -8 37 -25 57 -25
29z"/>
<path d="M3114 3503 c3 -10 8 -30 12 -45 6 -29 24 -39 24 -14 0 24 -22 76 -32
76 -5 0 -7 -8 -4 -17z"/>
<path d="M3230 3506 c0 -8 5 -18 10 -21 6 -3 10 3 10 14 0 12 -4 21 -10 21 -5
0 -10 -6 -10 -14z"/>
<path d="M3170 3488 c0 -14 7 -32 17 -39 15 -13 16 -11 9 16 -10 41 -26 56
-26 23z"/>
<path d="M3340 3493 c0 -29 10 -53 22 -53 6 0 7 11 3 28 -9 36 -25 52 -25 25z"/>
<path d="M3391 3487 c-2 -30 21 -107 31 -107 11 0 2 51 -17 95 -9 20 -14 24
-14 12z"/>
<path d="M3447 3483 c-9 -14 21 -113 34 -113 10 0 5 29 -16 89 -6 19 -15 30
-18 24z"/>
<path d="M3502 3468 c3 -7 13 -36 22 -65 9 -28 24 -57 33 -65 15 -11 16 -11 9
7 -5 11 -17 46 -28 78 -11 31 -24 57 -30 57 -6 0 -8 -6 -6 -12z"/>
<path d="M3573 3448 c11 -46 43 -122 53 -125 6 -2 0 30 -14 72 -14 41 -30 75
-35 75 -5 0 -7 -10 -4 -22z"/>
<path d="M3215 3438 c-2 -7 -5 -22 -7 -33 -3 -16 -14 -21 -60 -27 -104 -13
-167 -64 -220 -179 -32 -69 -34 -70 -65 -65 -34 5 -46 -9 -15 -18 9 -2 60 -10
112 -16 77 -9 291 -42 558 -86 36 -6 45 12 10 21 -21 5 -23 12 -24 68 -2 119
-39 186 -133 236 -51 27 -58 34 -53 56 2 14 -1 32 -8 40 -15 18 -89 20 -95 3z
m83 -35 c3 -20 -1 -23 -32 -23 -28 0 -36 4 -36 18 0 26 10 33 40 30 17 -2 26
-10 28 -25z m39 -73 c104 -44 152 -132 145 -261 l-2 -26 -142 24 c-79 13 -203
32 -276 42 -72 10 -135 20 -138 24 -3 3 9 33 27 67 36 67 105 135 153 150 52
16 175 6 233 -20z"/>
<path d="M3295 3295 c-16 -7 -23 -14 -15 -14 25 -1 60 11 60 20 0 12 -9 11
-45 -6z"/>
<path d="M3295 3263 c-77 -24 -115 -43 -84 -43 28 0 163 48 167 59 2 6 2 11 0
10 -1 0 -39 -12 -83 -26z"/>
<path d="M3330 3233 c-30 -14 -86 -36 -124 -48 -69 -24 -83 -31 -75 -40 3 -2
52 13 109 34 152 56 160 59 160 71 0 14 -7 12 -70 -17z"/>
<path d="M3312 3180 c-121 -38 -140 -45 -131 -55 6 -6 241 64 253 76 21 20 -5
15 -122 -21z"/>
<path d="M3340 3140 c-30 -9 -56 -23 -58 -30 -3 -8 1 -11 9 -8 8 3 44 15 82
27 37 13 67 25 67 27 0 9 -47 1 -100 -16z"/>
<path d="M3393 3108 c-31 -10 -45 -28 -23 -28 15 0 80 28 80 34 0 8 -19 6 -57
-6z"/>
<path d="M3430 3080 c0 -5 4 -10 9 -10 6 0 13 5 16 10 3 6 -1 10 -9 10 -9 0
-16 -4 -16 -10z"/>
<path d="M3642 3428 c3 -7 13 -37 22 -65 16 -47 36 -79 36 -56 0 23 -43 133
-52 133 -6 0 -8 -6 -6 -12z"/>
<path d="M3710 3420 c0 -16 50 -144 60 -154 14 -14 25 1 13 16 -6 7 -21 43
-34 81 -21 59 -39 86 -39 57z"/>
<path d="M3940 3415 c0 -24 31 -95 42 -95 6 0 8 6 5 14 -3 8 -11 32 -18 55
-12 40 -29 56 -29 26z"/>
<path d="M3770 3415 c0 -8 69 -195 80 -215 16 -31 33 -24 17 8 -8 15 -29 69
-47 120 -18 50 -36 92 -41 92 -5 0 -9 -2 -9 -5z"/>
<path d="M3890 3412 c0 -13 37 -117 50 -142 6 -12 14 -19 17 -17 7 7 -50 167
-59 167 -5 0 -8 -4 -8 -8z"/>
<path d="M3990 3400 c6 -11 15 -20 21 -20 6 0 6 7 -1 20 -6 11 -15 20 -21 20
-6 0 -6 -7 1 -20z"/>
<path d="M3840 3403 c0 -8 72 -206 77 -212 1 -2 6 -2 9 2 8 8 -68 217 -78 217
-4 0 -8 -3 -8 -7z"/>
<path d="M3910 3140 c0 -5 5 -10 10 -10 6 0 10 5 10 10 0 6 -4 10 -10 10 -5 0
-10 -4 -10 -10z"/>
<path d="M3890 3085 c0 -8 5 -15 10 -15 6 0 10 7 10 15 0 8 -4 15 -10 15 -5 0
-10 -7 -10 -15z"/>
<path d="M3866 3042 c-3 -6 -1 -14 5 -17 14 -9 20 -2 10 14 -6 8 -11 9 -15 3z"/>
<path d="M2897 3013 c-11 -19 -38 -126 -33 -130 6 -7 26 41 26 62 0 8 5 17 10
20 6 4 10 -13 10 -44 0 -58 11 -59 50 -6 33 46 42 44 25 -6 -18 -49 -18 -49
-5 -49 10 0 52 131 44 139 -3 3 -25 -15 -49 -40 l-44 -47 -7 54 c-6 49 -16 66
-27 47z"/>
<path d="M3840 2986 c0 -7 7 -19 15 -26 16 -13 20 -3 9 24 -8 20 -24 21 -24 2z"/>
<path d="M3050 2969 c-8 -15 -39 -104 -40 -115 0 -1 16 -5 36 -8 19 -4 42 -10
51 -13 11 -4 14 -2 11 8 -3 8 -18 16 -34 19 -40 7 -38 34 4 38 38 4 44 22 6
22 -21 0 -25 4 -22 23 2 18 9 22 41 22 39 0 48 9 21 19 -31 12 -63 6 -74 -15z"/>
<path d="M3151 2917 c-23 -68 -26 -91 -12 -83 4 3 14 26 21 51 7 25 16 45 20
45 4 0 13 -24 21 -52 8 -29 19 -52 24 -50 11 2 43 86 44 115 2 35 -17 16 -29
-30 l-12 -48 -21 58 c-11 31 -24 57 -28 57 -3 0 -16 -28 -28 -63z"/>
<path d="M3286 2914 c-19 -57 -20 -86 -4 -102 29 -29 73 1 102 72 18 44 20 56
7 56 -5 0 -15 -17 -22 -37 -16 -50 -38 -83 -55 -83 -24 0 -27 27 -11 78 9 26
12 51 8 55 -5 5 -16 -13 -25 -39z"/>
<path d="M3810 2912 c0 -5 7 -16 16 -23 14 -12 16 -11 13 5 -4 20 -29 35 -29
18z"/>
<path d="M3794 2860 c3 -14 6 -28 6 -32 0 -5 5 -8 10 -8 15 0 12 24 -6 46 -15
18 -15 18 -10 -6z"/>
<path d="M2678 2826 c-26 -19 -23 -22 20 -20 20 2 46 -1 57 -6 67 -28 115 -37
115 -20 0 6 -9 10 -20 10 -25 0 -73 21 -83 37 -6 10 -13 11 -30 2 -16 -9 -22
-9 -25 0 -5 14 -13 14 -34 -3z"/>
<path d="M3772 2786 c2 -16 9 -31 17 -34 10 -3 11 2 6 19 -12 39 -27 48 -23
15z"/>
<path d="M2962 2770 c-11 -18 -10 -20 16 -20 15 0 33 -5 38 -10 6 -6 29 -12
52 -14 32 -2 42 0 42 11 0 9 -6 13 -14 10 -16 -6 -66 14 -66 26 0 5 -9 5 -20
2 -11 -4 -20 -2 -20 4 0 17 -14 13 -28 -9z"/>
<path d="M3200 2731 c-14 -28 -14 -28 26 -26 19 0 38 -3 41 -8 3 -5 11 -6 19
-3 7 3 16 1 20 -5 3 -6 16 -9 27 -8 12 1 29 0 37 -3 31 -11 116 -31 148 -36
25 -3 32 -1 32 12 0 10 -5 14 -11 11 -14 -9 -99 15 -99 27 0 5 -13 7 -30 3
-20 -4 -30 -3 -30 5 0 8 -10 9 -30 5 -19 -4 -30 -3 -30 4 0 6 -9 11 -19 11
-10 0 -22 8 -26 18 -6 16 -7 16 -16 0 -12 -22 -29 -23 -29 -3 0 21 -17 19 -30
-4z"/>
<path d="M3744 2720 c3 -14 6 -28 6 -32 0 -5 5 -8 10 -8 15 0 12 24 -6 46 -15
18 -15 18 -10 -6z"/>
<path d="M2797 2712 c-18 -20 -25 -54 -7 -36 13 13 70 6 70 -8 0 -6 11 -7 25
-4 14 4 25 2 25 -3 0 -5 22 -12 49 -16 28 -4 54 -12 60 -18 5 -7 30 -12 55
-12 25 0 46 -3 46 -8 0 -4 8 -7 18 -6 9 1 24 -1 32 -4 26 -10 46 -12 48 -4 6
21 0 28 -18 22 -14 -5 -20 -2 -20 10 0 12 -4 14 -19 5 -14 -7 -22 -7 -26 0 -4
6 -15 8 -26 5 -13 -4 -19 -2 -19 9 0 18 -15 21 -25 6 -9 -15 -35 -12 -35 5 0
11 -8 13 -30 9 -20 -4 -30 -2 -30 5 0 8 -8 10 -20 6 -13 -4 -22 -1 -26 9 -4
11 -14 14 -30 10 -15 -4 -24 -2 -24 6 0 7 -7 10 -16 6 -10 -4 -21 0 -28 9 -11
15 -13 14 -29 -3z"/>
<path d="M3700 2686 c0 -15 24 -66 31 -66 11 0 11 0 -2 39 -6 17 -15 31 -20
31 -5 0 -9 -2 -9 -4z"/>
<path d="M3677 2623 c-7 -11 10 -71 23 -86 17 -19 17 10 0 52 -9 24 -20 39
-23 34z"/>
<path d="M3276 2604 c-4 -9 -5 -18 -4 -19 12 -8 100 -26 105 -21 9 9 -30 36
-45 31 -7 -3 -15 2 -18 10 -8 20 -30 19 -38 -1z"/>
<path d="M2595 2552 c6 -6 55 -16 110 -22 55 -6 154 -22 220 -35 66 -13 158
-29 205 -35 47 -7 125 -18 174 -26 51 -8 94 -10 99 -5 8 8 -84 26 -283 55 -58
8 -163 26 -235 40 -153 29 -305 44 -290 28z"/>
<path d="M3656 2533 c7 -31 33 -77 40 -71 2 3 -3 26 -12 51 -17 50 -39 65 -28
20z"/>
<path d="M3627 2484 c-8 -8 23 -94 35 -94 6 0 7 8 3 18 -3 9 -9 29 -12 45 -6
28 -16 41 -26 31z"/>
<path d="M2760 2451 c0 -16 400 -85 413 -72 10 10 8 11 -225 51 -204 34 -188
33 -188 21z"/>
<path d="M3592 2418 c3 -7 13 -37 22 -65 10 -29 22 -53 27 -53 11 0 11 0 -2
41 -21 67 -32 89 -41 89 -6 0 -8 -6 -6 -12z"/>
<path d="M2486 2352 c10 -10 70 -21 299 -57 88 -14 241 -39 340 -57 99 -17
202 -34 230 -39 28 -5 53 -5 58 0 11 11 -30 20 -303 65 -608 100 -644 105
-624 88z"/>
<path d="M3561 2340 c1 -29 35 -114 47 -118 7 -2 4 18 -9 54 -20 59 -40 92
-38 64z"/>
<path d="M2624 2259 c-7 -12 5 -15 101 -28 44 -7 107 -16 140 -22 250 -41 309
-49 317 -41 10 10 -91 31 -242 52 -41 6 -118 17 -170 26 -52 8 -105 16 -118
18 -12 2 -25 -1 -28 -5z"/>
<path d="M3520 2262 c0 -22 43 -132 52 -132 5 0 7 6 5 13 -3 6 -13 38 -23 70
-9 31 -21 57 -25 57 -5 0 -9 -4 -9 -8z"/>
<path d="M3480 2203 c1 -24 48 -147 57 -150 7 -3 0 31 -15 76 -14 45 -30 81
-34 81 -4 0 -8 -3 -8 -7z"/>
<path d="M2390 2142 c0 -6 33 -15 73 -22 187 -29 378 -62 437 -76 36 -8 97
-19 135 -25 39 -6 105 -16 147 -23 42 -7 82 -9 89 -5 20 12 4 16 -216 44 -27
4 -97 17 -155 30 -58 13 -179 35 -270 49 -91 15 -182 29 -202 32 -24 4 -38 3
-38 -4z"/>
<path d="M3447 2103 c-4 -6 2 -40 13 -75 11 -34 20 -71 20 -80 0 -10 5 -18 11
-18 13 0 7 42 -19 128 -10 32 -21 52 -25 45z"/>
<path d="M2542 2028 c3 -7 24 -14 49 -16 24 -1 109 -16 189 -31 194 -39 293
-52 304 -41 12 12 -2 16 -109 30 -49 7 -157 25 -239 41 -166 32 -200 35 -194
17z"/>
<path d="M3403 2016 c3 -8 13 -55 22 -105 10 -50 22 -91 27 -91 7 0 8 13 4 33
-4 17 -11 56 -16 85 -12 72 -19 92 -32 92 -5 0 -8 -6 -5 -14z"/>
<path d="M2070 2016 c0 -2 -7 -20 -15 -39 -22 -53 -2 -54 23 -2 18 37 19 45 7
45 -8 0 -15 -2 -15 -4z"/>
<path d="M2096 1964 c-3 -9 -6 -23 -6 -32 1 -15 3 -14 15 2 17 22 20 46 6 46
-5 0 -12 -7 -15 -16z"/>
<path d="M2147 1953 c-4 -3 -7 -16 -7 -27 1 -21 1 -21 15 -2 8 11 15 23 15 28
0 10 -14 11 -23 1z"/>
<path d="M3358 1955 c-5 -6 38 -224 47 -233 14 -14 12 12 -8 115 -21 108 -28
129 -39 118z"/>
<path d="M2186 1941 c-4 -7 -5 -15 -2 -18 9 -9 19 4 14 18 -4 11 -6 11 -12 0z"/>
<path d="M2220 1914 c0 -8 5 -12 10 -9 6 3 10 10 10 16 0 5 -4 9 -10 9 -5 0
-10 -7 -10 -16z"/>
<path d="M3300 1883 c2 -36 48 -197 57 -200 9 -3 9 7 -2 44 -7 26 -19 74 -25
106 -6 31 -16 57 -21 57 -5 0 -9 -3 -9 -7z"/>
<path d="M3170 1874 c0 -40 59 -216 60 -178 1 22 -45 184 -52 184 -5 0 -8 -3
-8 -6z"/>
<path d="M3240 1870 c1 -24 37 -170 44 -177 15 -15 13 8 -6 87 -19 79 -38 124
-38 90z"/>
<path d="M3115 1833 c3 -10 11 -38 18 -63 11 -45 26 -74 34 -66 8 8 -38 146
-48 146 -7 0 -8 -8 -4 -17z"/>
<path d="M3074 1781 c8 -60 13 -74 25 -66 10 5 -10 99 -23 112 -5 4 -6 -15 -2
-46z"/>
<path d="M3020 1814 c0 -21 24 -94 31 -94 9 0 4 34 -12 78 -8 20 -19 30 -19
16z"/>
<path d="M2095 2710 c-4 -6 5 -10 19 -10 14 0 26 5 26 10 0 6 -9 10 -19 10
-11 0 -23 -4 -26 -10z"/>
<path d="M2090 2679 c0 -5 11 -9 25 -9 14 0 25 2 25 4 0 2 -11 6 -25 8 -14 3
-25 1 -25 -3z"/>
<path d="M1844 2281 c5 -8 56 -3 56 5 0 2 -14 4 -31 4 -16 0 -28 -4 -25 -9z"/>
<path d="M1770 2160 c0 -5 18 -10 40 -10 22 0 40 5 40 10 0 6 -18 10 -40 10
-22 0 -40 -4 -40 -10z"/>
<path d="M1750 2120 c0 -13 50 -13 70 0 11 7 4 10 -27 10 -24 0 -43 -4 -43
-10z"/>
<path d="M1758 2082 c-43 -4 -52 -22 -10 -21 32 1 70 14 56 20 -5 2 -26 3 -46
1z"/>
<path d="M1707 2029 c7 -7 21 -7 44 -1 l34 10 -44 1 c-32 1 -42 -2 -34 -10z"/>
<path d="M1690 2000 c0 -5 16 -10 36 -10 21 0 33 4 29 10 -3 6 -19 10 -36 10
-16 0 -29 -4 -29 -10z"/>
<path d="M1680 1970 c0 -5 12 -10 26 -10 14 0 23 4 19 10 -3 6 -15 10 -26 10
-10 0 -19 -4 -19 -10z"/>
<path d="M1650 1910 c0 -5 7 -10 15 -10 8 0 15 5 15 10 0 6 -7 10 -15 10 -8 0
-15 -4 -15 -10z"/>
<path d="M1625 1880 c3 -5 10 -10 16 -10 5 0 9 5 9 10 0 6 -7 10 -16 10 -8 0
-12 -4 -9 -10z"/>
<path d="M1845 3519 c-58 -54 -69 -73 -55 -99 8 -15 6 -23 -8 -37 -10 -10 -49
-61 -87 -113 -38 -52 -97 -127 -130 -166 -87 -102 -366 -449 -558 -693 -84
-106 -255 -336 -351 -471 -54 -76 -92 -158 -167 -356 -146 -386 -173 -528
-121 -630 24 -48 56 -64 122 -64 87 0 80 28 73 -328 -3 -175 -3 -314 1 -311 4
4 9 91 12 194 l5 187 36 31 c20 18 53 45 75 60 l38 29 0 -24 c0 -16 -18 -37
-60 -71 -33 -26 -60 -52 -60 -57 0 -17 16 -11 41 16 13 14 36 35 52 46 l27 19
0 -28 c0 -22 -11 -36 -55 -68 -49 -35 -67 -55 -49 -55 4 0 28 16 55 36 41 30
49 33 49 17 0 -10 -9 -24 -20 -31 -26 -16 -27 -37 -1 -23 17 9 19 5 25 -57 3
-37 6 -95 6 -129 0 -34 3 -69 7 -78 5 -16 7 -15 17 3 10 18 109 102 121 102 3
0 5 -8 4 -17 0 -11 -25 -34 -60 -56 -32 -21 -59 -43 -59 -48 0 -16 16 -10 63
26 25 19 48 35 51 35 17 0 2 -37 -21 -56 -14 -11 -22 -23 -17 -27 6 -3 23 5
40 18 l30 23 -7 89 c-24 277 -28 358 -21 365 4 4 106 -22 227 -57 188 -54 238
-65 345 -74 93 -7 148 -17 218 -40 51 -17 101 -31 112 -31 11 0 52 -11 93 -24
40 -13 124 -31 187 -40 63 -9 147 -25 185 -35 39 -10 110 -22 158 -25 49 -4
123 -16 165 -28 106 -28 242 -57 270 -58 41 0 23 18 -25 25 -26 4 -107 22
-179 40 -73 19 -170 37 -216 40 -46 4 -117 15 -158 25 -41 10 -124 26 -185 35
-60 10 -145 28 -189 41 -44 13 -88 24 -98 24 -10 0 -60 14 -110 30 -67 22
-128 33 -218 41 -104 9 -163 21 -350 74 -124 35 -267 76 -319 90 -148 41 -158
47 -171 112 -13 59 -5 209 25 503 15 153 19 278 9 304 -11 30 -32 16 -48 -31
-33 -96 -76 -422 -76 -574 0 -78 6 -92 29 -65 9 10 8 15 -4 20 -22 8 -18 23 8
30 l22 7 -22 9 c-30 12 -29 16 8 35 l30 16 -3 -125 c-2 -89 -6 -126 -15 -126
-6 0 -15 4 -18 10 -3 5 -32 10 -63 10 -70 0 -100 15 -126 60 -29 49 -26 149 9
270 44 156 184 532 229 615 56 105 434 598 843 1098 76 93 147 181 158 197 16
23 104 137 180 234 9 12 12 29 8 43 -4 19 2 33 28 60 51 52 60 55 136 38 67
-15 540 -41 551 -30 13 12 -16 16 -194 21 -163 5 -265 16 -411 41 -27 4 -38
-1 -78 -38z m-1195 -1894 c0 -48 -2 -55 -20 -55 -25 0 -26 15 -2 30 11 7 13
13 5 16 -8 4 -9 13 -1 35 5 16 12 29 14 29 2 0 4 -25 4 -55z m0 -80 c0 -10
-10 -15 -27 -15 -27 1 -27 1 -9 15 25 19 36 19 36 0z m-4 -77 c-3 -24 -10 -92
-16 -153 -14 -149 -17 -162 -43 -169 -34 -8 -35 4 -2 30 l30 24 -25 0 -25 0
25 21 c24 20 24 21 3 16 -30 -7 -32 29 -3 38 11 3 20 11 20 16 0 6 -9 7 -20 4
-30 -9 -24 12 8 29 25 14 26 15 5 16 -26 0 -31 15 -8 24 20 7 19 24 -2 29 -15
3 -13 6 9 17 28 13 30 34 3 23 -8 -3 -15 0 -15 7 0 6 9 14 20 17 23 6 27 23 5
23 -18 0 -20 16 -2 23 32 14 38 7 33 -35z m-32 -615 c4 -9 0 -23 -9 -32 -13
-14 -15 -12 -15 17 0 34 14 43 24 15z m36 -51 c0 -5 -13 -21 -29 -36 -33 -31
-48 -17 -23 22 14 21 52 31 52 14z m70 -29 c2 -2 0 -7 -6 -11 -6 -4 -38 -29
-72 -55 -76 -59 -84 -40 -15 34 36 39 51 48 67 43 12 -4 23 -8 26 -11z m69
-22 c11 -7 9 -11 -9 -21 -25 -14 -33 -9 -24 14 7 18 13 19 33 7z m71 -18 c-1
-7 -84 -74 -102 -81 -20 -9 -5 25 24 55 28 29 79 46 78 26z m10 -40 c0 -13
-14 -28 -63 -67 -66 -54 -73 -35 -10 25 48 45 73 60 73 42z m0 -72 c0 -10 -25
-38 -60 -65 -48 -38 -60 -44 -60 -29 0 18 93 113 111 113 5 0 9 -8 9 -19z m-4
-80 c-9 -10 -36 -32 -61 -50 -32 -23 -45 -28 -45 -17 0 19 113 112 118 96 2
-6 -3 -19 -12 -29z m14 -49 c0 -23 -11 -36 -60 -70 -60 -42 -60 -43 -60 -17 0
18 15 36 58 70 31 25 58 45 60 45 1 0 2 -13 2 -28z m3 -86 c-7 -17 -96 -86
-110 -86 -29 0 -10 32 44 75 37 29 60 40 64 33 4 -6 5 -16 2 -22z"/>
<path d="M1961 3433 c-41 -49 -41 -80 0 -33 38 45 53 70 40 70 -5 0 -23 -17
-40 -37z"/>
<path d="M2024 3425 c-26 -35 -27 -59 -2 -37 20 17 50 72 39 72 -5 0 -22 -16
-37 -35z"/>
<path d="M2101 3431 c-21 -30 -27 -51 -13 -51 7 0 52 65 52 75 0 14 -21 2 -39
-24z"/>
<path d="M1874 3405 c-20 -25 -34 -49 -30 -53 7 -7 56 44 77 81 20 34 -10 17
-47 -28z"/>
<path d="M2170 3435 c-6 -8 -10 -22 -8 -32 3 -14 8 -11 21 15 18 32 9 44 -13
17z"/>
<path d="M2230 3435 c-22 -27 -5 -37 19 -11 19 20 21 26 9 26 -9 0 -21 -7 -28
-15z"/>
<path d="M2291 3436 c-8 -10 -9 -16 -1 -21 5 -3 13 1 16 10 9 22 -1 29 -15 11z"/>
<path d="M2350 3430 c0 -5 5 -10 10 -10 6 0 10 5 10 10 0 6 -4 10 -10 10 -5 0
-10 -4 -10 -10z"/>
<path d="M4200 3301 c0 -12 62 -21 150 -21 41 0 127 -7 190 -15 63 -8 205 -24
315 -35 382 -39 470 -50 555 -69 111 -25 118 -28 137 -64 27 -53 33 -85 17
-98 -19 -16 -18 -33 2 -25 13 5 15 1 12 -21 -3 -16 -9 -37 -13 -48 -8 -17 -7
-18 7 -7 13 10 16 9 21 -9 4 -15 -1 -28 -16 -40 -12 -10 -17 -18 -12 -19 6 0
16 5 22 11 7 7 14 -9 22 -53 18 -90 38 -162 71 -248 78 -206 92 -246 97 -290
6 -52 -9 -75 -72 -105 -63 -29 -68 -25 -92 83 -12 53 -26 138 -32 187 -39 339
-75 505 -102 478 -16 -16 -30 -149 -24 -218 18 -196 55 -363 86 -391 11 -9 19
-12 19 -6 0 6 -6 12 -12 15 -10 3 -10 9 0 26 16 27 15 34 -3 27 -17 -6 -21 19
-5 29 16 10 12 28 -5 21 -14 -5 -13 -2 0 24 16 30 9 40 -13 18 -17 -17 -15 -3
4 33 8 17 12 34 8 37 -4 4 -9 1 -11 -5 -8 -21 -23 -15 -23 9 0 12 8 30 17 40
17 19 18 16 35 -69 9 -48 17 -104 18 -123 0 -19 10 -79 22 -132 l22 -98 -21
-28 c-25 -33 -35 -67 -64 -217 -11 -60 -34 -162 -51 -225 -26 -104 -107 -479
-129 -605 -5 -27 -28 -147 -50 -265 -78 -417 -78 -423 -59 -435 6 -4 10 6 10
22 0 34 39 267 74 443 13 69 31 166 40 215 19 115 98 486 136 635 16 63 40
173 55 244 30 153 51 190 113 198 51 7 121 54 129 86 10 41 -11 128 -67 272
-69 180 -94 271 -120 442 -22 149 -47 220 -82 239 -36 19 -253 59 -410 74 -84
8 -198 19 -253 25 -55 5 -152 17 -215 25 -267 35 -450 45 -450 26z m1300 -473
c1 -7 7 -48 15 -92 14 -77 13 -79 -8 -97 -29 -23 -35 -3 -12 40 13 27 13 30 0
25 -18 -7 -19 9 -4 39 9 16 9 22 0 25 -14 5 -15 72 -1 72 6 0 10 -6 10 -12z
m22 -254 c-9 -8 -20 -14 -24 -14 -14 0 -9 30 9 57 l17 26 8 -28 c5 -21 3 -32
-10 -41z"/>
<path d="M5335 3122 c6 -5 37 -12 69 -15 43 -4 56 -3 48 5 -6 6 -37 13 -69 16
-38 3 -55 1 -48 -6z"/>
<path d="M5380 3070 c8 -5 29 -10 45 -10 23 0 27 3 15 10 -8 5 -28 10 -45 10
-23 0 -27 -3 -15 -10z"/>
<path d="M5380 3030 c0 -11 48 -25 57 -16 9 8 3 12 -29 20 -17 4 -28 2 -28 -4z"/>
<path d="M5390 2980 c0 -5 9 -10 20 -10 11 0 20 5 20 10 0 6 -9 10 -20 10 -11
0 -20 -4 -20 -10z"/>
<path d="M5385 2940 c-3 -4 2 -11 11 -14 22 -8 34 -7 34 3 0 12 -39 21 -45 11z"/>
<path d="M5370 2892 c0 -5 7 -13 16 -16 10 -4 14 -1 12 6 -5 15 -28 23 -28 10z"/>
<path d="M5360 2840 c0 -5 5 -10 11 -10 5 0 7 5 4 10 -3 6 -8 10 -11 10 -2 0
-4 -4 -4 -10z"/>
<path d="M5570 2770 c0 -5 4 -10 9 -10 6 0 13 5 16 10 3 6 -1 10 -9 10 -9 0
-16 -4 -16 -10z"/>
<path d="M5579 2704 c-12 -14 -11 -16 5 -13 11 2 21 10 24 17 5 17 -13 15 -29
-4z"/>
<path d="M5595 2649 c-12 -19 5 -23 22 -6 16 16 16 17 1 17 -9 0 -20 -5 -23
-11z"/>
<path d="M4372 2615 c-29 -13 -196 -187 -239 -250 -38 -56 -70 -133 -84 -202
-15 -74 -7 -90 52 -99 21 -4 37 -10 34 -14 -2 -3 -18 -5 -35 -2 -18 2 -30 0
-30 -7 0 -6 9 -11 21 -11 l21 0 -22 -27 c-89 -116 -120 -165 -181 -288 -69
-139 -109 -245 -109 -291 0 -32 41 -51 110 -52 49 -1 53 0 32 11 -12 7 -20 16
-16 19 3 4 14 2 25 -5 10 -6 22 -8 26 -4 4 5 1 12 -6 16 -22 14 -4 28 30 23
22 -3 30 -1 25 7 -4 6 -14 11 -22 11 -8 0 -12 5 -9 10 3 6 21 10 38 10 28 1
30 2 15 14 -13 10 -15 15 -6 24 7 7 17 12 24 12 7 0 10 8 7 20 -4 15 0 20 15
20 15 0 19 5 15 20 -4 14 0 20 12 20 11 0 15 5 10 19 -3 10 1 23 9 30 8 7 13
18 10 25 -3 8 5 16 18 20 14 5 18 9 11 13 -17 7 -16 23 1 23 10 0 12 7 8 22
-4 17 -2 20 11 15 18 -7 24 8 7 18 -19 12 -10 35 13 35 21 1 21 1 3 15 -22 16
-13 35 17 35 20 1 21 2 5 14 -25 18 -22 36 5 36 20 1 21 2 5 14 -24 18 -23 30
2 23 11 -3 20 -1 20 3 0 5 -9 12 -20 15 -30 10 -24 25 10 25 17 0 30 5 30 10
0 6 -12 10 -26 10 -15 0 -23 4 -19 11 4 6 13 8 21 5 8 -3 17 1 20 9 4 8 15 15
25 15 10 0 19 5 19 10 0 6 -4 10 -10 10 -5 0 -10 5 -10 10 0 6 9 10 20 10 22
0 27 15 8 23 -8 3 -6 6 5 6 20 1 23 17 5 24 -8 4 -4 8 10 12 22 7 31 25 12 25
-5 0 -10 5 -10 10 0 6 7 10 15 10 8 0 15 5 15 10 0 6 -4 10 -10 10 -5 0 -10 5
-10 10 0 6 9 10 20 10 24 0 27 15 4 24 -8 3 -12 11 -9 17 4 6 13 8 21 5 8 -3
14 -1 14 5 0 5 -6 12 -14 15 -18 7 -9 34 10 34 17 0 19 17 2 22 -19 7 3 30 23
25 22 -6 26 11 4 19 -26 10 -17 34 13 34 24 1 25 2 10 14 -22 16 -23 36 -3 36
8 0 15 5 15 10 0 6 -4 10 -10 10 -5 0 -10 5 -10 10 0 6 9 10 20 10 11 0 20 5
20 10 0 6 -6 10 -14 10 -7 0 -16 13 -19 29 -5 22 -12 30 -36 33 -17 2 -43 -1
-59 -7z m68 -47 c0 -39 -113 -393 -146 -459 -15 -30 -32 -49 -47 -53 -24 -6
-47 -57 -47 -107 0 -52 -52 -216 -95 -298 -48 -91 -156 -220 -207 -247 -80
-41 -91 34 -27 185 72 170 189 362 255 420 50 44 42 71 -21 71 -41 0 -48 21
-31 94 28 119 76 192 223 344 67 68 86 82 112 82 28 0 31 -3 31 -32z"/>
<path d="M4344 2525 c-17 -13 -17 -14 -2 -15 9 0 20 5 23 11 11 17 0 20 -21 4z"/>
<path d="M4323 2483 c-18 -9 -33 -20 -33 -25 0 -12 11 -9 60 17 51 27 26 34
-27 8z"/>
<path d="M4320 2440 c-24 -9 -46 -23 -48 -29 -2 -7 16 -3 47 9 29 11 54 20 56
20 3 0 5 5 5 10 0 13 -5 12 -60 -10z"/>
<path d="M4283 2383 c-35 -14 -63 -29 -63 -35 0 -6 8 -7 18 -3 9 4 41 16 70
27 28 11 52 24 52 29 0 12 -5 11 -77 -18z"/>
<path d="M4272 2341 c-46 -15 -59 -24 -49 -33 5 -6 127 36 127 44 0 11 -16 9
-78 -11z"/>
<path d="M4267 2295 c-50 -14 -64 -21 -56 -30 7 -7 110 22 122 34 14 14 -4 13
-66 -4z"/>
<path d="M4228 2243 c-27 -8 -48 -18 -48 -24 0 -12 5 -12 67 8 29 9 53 20 53
25 0 11 -15 9 -72 -9z"/>
<path d="M4208 2188 c-45 -10 -66 -28 -32 -28 26 0 104 22 110 31 6 11 -15 10
-78 -3z"/>
<path d="M4190 2121 c-23 -4 -31 -9 -22 -14 14 -10 69 0 77 14 7 10 -1 10 -55
0z"/>
<path d="M4190 2080 c0 -5 7 -10 15 -10 8 0 15 5 15 10 0 6 -7 10 -15 10 -8 0
-15 -4 -15 -10z"/>
<path d="M4160 1989 c7 -11 14 -18 17 -15 8 8 -5 36 -17 36 -7 0 -7 -6 0 -21z"/>
<path d="M4140 1958 c0 -24 11 -48 22 -48 5 0 6 10 3 23 -10 30 -25 46 -25 25z"/>
<path d="M4120 1902 c0 -19 19 -52 30 -52 16 0 12 16 -10 41 -11 14 -19 18
-20 11z"/>
<path d="M4100 1851 c0 -19 23 -71 31 -71 12 0 11 5 -5 45 -14 33 -26 45 -26
26z"/>
<path d="M4070 1805 c0 -22 24 -95 31 -95 11 0 11 7 -1 52 -9 32 -30 62 -30
43z"/>
<path d="M4035 1743 c4 -10 9 -25 11 -33 1 -8 5 -28 9 -43 3 -15 9 -25 14 -23
16 10 -13 116 -31 116 -6 0 -7 -8 -3 -17z"/>
<path d="M4005 1683 c4 -10 9 -35 12 -55 6 -42 23 -52 23 -14 0 32 -20 86 -32
86 -6 0 -7 -8 -3 -17z"/>
<path d="M3977 1603 c7 -49 23 -67 23 -26 0 36 -9 63 -20 63 -5 0 -6 -17 -3
-37z"/>
<path d="M3940 1540 c10 -57 22 -64 18 -11 -2 25 -8 46 -14 48 -8 3 -9 -8 -4
-37z"/>
<path d="M3910 1485 c0 -19 5 -35 10 -35 6 0 10 16 10 35 0 19 -4 35 -10 35
-5 0 -10 -16 -10 -35z"/>
<path d="M3880 1453 c0 -18 2 -33 4 -33 9 0 13 39 5 51 -6 10 -9 4 -9 -18z"/>
<path d="M5614 2606 c-10 -8 -15 -18 -11 -22 4 -4 15 0 24 9 22 21 12 31 -13
13z"/>
<path d="M5357 2590 c-3 -8 -41 -118 -85 -245 -82 -236 -229 -646 -276 -769
-14 -38 -42 -126 -60 -195 -19 -69 -46 -157 -60 -196 -24 -65 -26 -97 -5 -65
10 16 57 164 107 335 29 99 84 254 203 572 90 242 190 545 186 563 -3 13 -5
13 -10 0z"/>
<path d="M5630 2555 c-7 -9 -10 -18 -7 -22 8 -7 37 15 37 28 0 14 -16 11 -30
-6z"/>
<path d="M5405 2458 c10 -117 18 -160 30 -156 6 1 8 8 6 13 -2 6 -8 58 -14
118 -6 59 -15 107 -20 107 -5 0 -6 -35 -2 -82z"/>
<path d="M5645 2510 c-10 -11 -16 -23 -13 -26 7 -6 38 24 38 37 0 13 -5 11
-25 -11z"/>
<path d="M5660 2455 c-13 -14 -19 -25 -13 -25 12 0 48 38 41 45 -2 3 -15 -6
-28 -20z"/>
<path d="M1995 2440 c3 -5 17 -10 31 -10 14 0 22 4 19 10 -3 6 -17 10 -31 10
-14 0 -22 -4 -19 -10z"/>
<path d="M5364 2418 c3 -18 11 -78 17 -132 6 -54 15 -107 21 -116 11 -18 2
-137 -10 -125 -10 9 -31 160 -32 222 0 28 -4 55 -10 58 -6 4 -10 -12 -10 -42
0 -63 31 -266 41 -273 9 -6 -13 -156 -24 -166 -3 -4 -8 4 -11 17 -9 45 -36
294 -36 332 0 20 -5 37 -11 37 -8 0 -9 -23 -5 -72 13 -148 39 -323 49 -336 11
-15 -11 -198 -23 -185 -4 4 -15 73 -24 153 -9 80 -21 181 -26 224 -6 44 -10
84 -10 90 0 6 -3 6 -9 1 -12 -14 37 -442 55 -481 13 -26 13 -40 -1 -109 -16
-87 -21 -98 -30 -64 -7 32 -42 340 -51 452 -4 48 -11 87 -15 87 -11 0 -11 1 2
-145 15 -182 47 -412 59 -435 8 -15 8 -42 -1 -100 -7 -44 -15 -80 -19 -80 -3
0 -14 53 -23 118 -16 106 -25 198 -44 440 -3 45 -11 85 -16 89 -7 4 -8 -22 -3
-78 21 -261 37 -409 57 -532 21 -129 21 -144 9 -240 l-14 -102 -8 60 c-4 33
-21 222 -39 420 -17 198 -33 362 -35 364 -14 16 -14 -30 0 -196 9 -103 21
-226 26 -273 5 -47 14 -151 21 -232 7 -82 16 -148 21 -148 4 0 8 -13 8 -30 0
-42 -22 -182 -27 -176 -19 19 -53 333 -53 488 0 99 -27 428 -35 437 -13 12
-14 -12 -5 -90 6 -46 15 -194 20 -329 10 -243 40 -501 61 -526 8 -10 6 -48 -5
-137 -9 -67 -16 -134 -15 -147 1 -58 19 20 39 170 69 530 91 694 105 770 8 47
30 175 50 285 92 524 104 611 75 565 -6 -8 -10 -13 -10 -10 0 3 -7 59 -15 125
-8 65 -15 123 -15 127 0 4 -5 8 -10 8 -7 0 -9 -13 -6 -32z"/>
<path d="M5676 2409 c-15 -15 -16 -19 -5 -19 16 0 39 19 39 32 0 13 -14 8 -34
-13z"/>
<path d="M1990 2400 c0 -5 12 -10 26 -10 14 0 23 4 19 10 -3 6 -15 10 -26 10
-10 0 -19 -4 -19 -10z"/>
<path d="M1980 2371 c0 -10 24 -21 43 -21 7 0 3 7 -7 15 -22 17 -36 19 -36 6z"/>
<path d="M5691 2367 c-6 -8 -8 -17 -4 -20 7 -8 33 11 33 24 0 13 -16 11 -29
-4z"/>
<path d="M1964 2325 c11 -8 27 -15 35 -15 13 1 12 4 -3 15 -11 8 -27 15 -35
15 -13 -1 -12 -4 3 -15z"/>
<path d="M5701 2317 c-6 -8 -8 -17 -4 -20 7 -8 33 11 33 24 0 13 -16 11 -29
-4z"/>
<path d="M5720 2275 c-7 -8 -8 -15 -2 -15 5 0 15 7 22 15 7 8 8 15 2 15 -5 0
-15 -7 -22 -15z"/>
<path d="M5740 2240 c-8 -5 -11 -12 -7 -16 4 -4 13 -2 19 4 15 15 7 24 -12 12z"/>
<path d="M970 2206 c0 -2 7 -6 15 -10 8 -3 15 -1 15 4 0 6 -7 10 -15 10 -8 0
-15 -2 -15 -4z"/>
<path d="M5509 2205 c-9 -8 31 -115 43 -115 10 0 4 26 -21 83 -9 21 -19 36
-22 32z"/>
<path d="M930 2150 c19 -13 30 -13 30 0 0 6 -10 10 -22 10 -19 0 -20 -2 -8
-10z"/>
<path d="M5488 2145 c-6 -6 34 -110 47 -123 12 -11 -6 60 -24 96 -9 18 -19 30
-23 27z"/>
<path d="M900 2100 c0 -5 10 -10 23 -10 18 0 19 2 7 10 -19 13 -30 13 -30 0z"/>
<path d="M860 2050 c0 -5 12 -10 28 -10 21 0 24 2 12 10 -20 13 -40 13 -40 0z"/>
<path d="M5470 2038 c1 -7 9 -29 20 -48 23 -43 28 -14 5 30 -16 32 -25 38 -25
18z"/>
<path d="M830 2011 c0 -11 39 -26 47 -17 8 8 3 12 -24 20 -13 4 -23 3 -23 -3z"/>
<path d="M5457 1973 c-7 -11 23 -83 34 -83 5 0 1 19 -8 43 -19 50 -20 51 -26
40z"/>
<path d="M775 1962 c6 -7 26 -15 45 -18 26 -5 32 -4 25 4 -6 7 -26 15 -45 18
-26 5 -32 4 -25 -4z"/>
<path d="M740 1922 c0 -13 25 -22 63 -22 23 1 28 3 17 9 -25 15 -80 23 -80 13z"/>
<path d="M700 1882 c0 -15 93 -37 145 -33 34 3 -4 18 -63 25 -29 4 -59 9 -67
12 -8 4 -15 2 -15 -4z"/>
<path d="M5440 1885 c0 -2 8 -20 17 -40 22 -46 38 -45 18 1 -8 20 -15 38 -15
40 0 2 -4 4 -10 4 -5 0 -10 -2 -10 -5z"/>
<path d="M675 1805 c26 -20 66 -31 193 -50 59 -9 149 -25 201 -36 52 -10 158
-26 235 -34 85 -10 242 -40 396 -75 140 -33 309 -69 375 -80 66 -12 174 -32
240 -45 118 -23 150 -30 370 -80 61 -13 229 -47 375 -76 146 -28 344 -71 440
-94 96 -24 231 -52 300 -64 69 -11 195 -32 280 -46 201 -33 297 -50 395 -70
44 -9 95 -18 114 -21 19 -2 52 -9 75 -14 52 -12 93 -13 81 -2 -16 14 -397 87
-715 137 -295 47 -360 59 -535 101 -271 64 -289 68 -505 109 -107 20 -251 49
-320 65 -154 36 -547 115 -615 125 -53 7 -338 71 -466 105 -41 11 -154 29
-250 40 -96 11 -203 27 -239 35 -36 8 -134 26 -217 40 -84 14 -164 30 -178 35
-38 14 -53 12 -30 -5z"/>
<path d="M1590 1801 c0 -10 50 -25 58 -16 8 7 1 11 -30 19 -16 3 -28 2 -28 -3z"/>
<path d="M5430 1805 c0 -17 33 -78 37 -68 2 6 -3 25 -12 42 -14 28 -25 39 -25
26z"/>
<path d="M5425 1710 c3 -19 10 -39 15 -44 15 -15 12 14 -6 49 l-14 30 5 -35z"/>
<path d="M5410 1648 c1 -7 7 -24 15 -38 15 -26 19 -12 9 28 -7 23 -24 31 -24
10z"/>
<path d="M901 1624 c-19 -8 -31 -17 -28 -20 7 -8 75 14 82 27 9 13 -15 10 -54
-7z"/>
<path d="M923 1582 c-45 -20 -80 -39 -77 -43 5 -9 161 54 178 71 19 19 -17 9
-101 -28z"/>
<path d="M5403 1545 c0 -27 2 -38 4 -22 2 15 2 37 0 50 -2 12 -4 0 -4 -28z"/>
<path d="M956 1530 c-59 -21 -113 -44 -120 -50 -13 -15 -12 -15 141 37 61 21
115 41 119 46 16 16 -36 4 -140 -33z"/>
<path d="M1243 1539 c-28 -8 -55 -29 -38 -29 18 0 101 24 110 31 12 11 -30 10
-72 -2z"/>
<path d="M4905 1510 c-3 -5 3 -10 14 -10 12 0 21 5 21 10 0 6 -6 10 -14 10 -8
0 -18 -4 -21 -10z"/>
<path d="M1261 1492 c-30 -10 -56 -22 -58 -29 -4 -11 129 26 144 40 11 12 -30
6 -86 -11z"/>
<path d="M932 1461 c-62 -21 -118 -43 -125 -50 -16 -16 6 -14 51 5 52 23 184
64 205 64 9 0 17 5 17 10 0 17 -30 11 -148 -29z"/>
<path d="M5376 1492 c-7 -11 4 -52 13 -52 4 0 6 14 3 30 -4 31 -7 35 -16 22z"/>
<path d="M1548 1468 c-16 -5 -28 -14 -28 -20 0 -6 7 -7 16 -4 9 3 27 9 40 12
13 3 21 10 18 15 -6 11 -11 10 -46 -3z"/>
<path d="M1732 1450 c-18 -4 -36 -10 -39 -14 -14 -13 5 -14 50 -3 27 7 45 16
41 20 -8 8 -6 8 -52 -3z"/>
<path d="M1268 1432 c-87 -31 -71 -45 18 -16 27 9 53 21 59 25 15 14 -25 9
-77 -9z"/>
<path d="M3522 1443 c-6 -2 -10 -8 -7 -13 5 -8 62 3 73 15 7 6 -49 5 -66 -2z"/>
<path d="M4880 1440 c0 -5 7 -10 16 -10 8 0 12 5 9 10 -3 6 -10 10 -16 10 -5
0 -9 -4 -9 -10z"/>
<path d="M500 1430 c0 -12 28 -25 36 -17 3 3 -4 10 -15 17 -15 7 -21 7 -21 0z"/>
<path d="M943 1402 c-57 -20 -103 -40 -103 -44 0 -13 19 -9 95 21 41 17 90 33
109 37 37 6 50 25 19 23 -10 0 -64 -17 -120 -37z"/>
<path d="M1552 1429 c-18 -5 -30 -14 -27 -19 3 -5 19 -5 38 1 17 5 33 9 34 9
2 0 3 5 3 10 0 12 -4 11 -48 -1z"/>
<path d="M5054 1388 c4 -29 11 -156 16 -283 6 -126 15 -264 20 -305 5 -41 9
-86 10 -99 0 -16 4 -21 9 -15 6 5 6 39 1 86 -5 43 -14 173 -20 290 -16 319
-21 378 -32 378 -7 0 -8 -19 -4 -52z"/>
<path d="M5354 1415 c4 -16 12 -34 18 -40 7 -7 8 -1 4 20 -4 17 -12 35 -18 40
-7 7 -8 1 -4 -20z"/>
<path d="M1731 1398 c-24 -5 -39 -13 -35 -18 11 -10 114 10 114 22 0 10 -22 9
-79 -4z"/>
<path d="M490 1390 c0 -12 28 -25 36 -17 3 3 -4 10 -15 17 -15 7 -21 7 -21 0z"/>
<path d="M1258 1373 c-32 -8 -58 -19 -58 -24 0 -5 2 -9 5 -9 12 0 148 40 153
45 10 9 -42 3 -100 -12z"/>
<path d="M1548 1383 c-10 -2 -18 -9 -18 -15 0 -5 7 -7 16 -4 9 3 22 6 30 6 9
0 12 5 9 10 -6 10 -9 11 -37 3z"/>
<path d="M2211 1381 c-14 -4 -26 -12 -29 -19 -3 -9 4 -9 30 0 61 20 60 36 -1
19z"/>
<path d="M4860 1380 c0 -5 6 -10 14 -10 8 0 18 5 21 10 3 6 -3 10 -14 10 -12
0 -21 -4 -21 -10z"/>
<path d="M963 1328 c-51 -17 -93 -35 -93 -40 0 -11 3 -11 108 26 41 14 85 26
98 26 13 0 24 5 24 10 0 17 -42 11 -137 -22z"/>
<path d="M1763 1346 c-53 -11 -80 -26 -49 -26 28 0 106 22 112 31 6 10 5 10
-63 -5z"/>
<path d="M3860 1351 c0 -5 16 -11 35 -13 36 -4 47 5 19 16 -23 9 -54 7 -54 -3z"/>
<path d="M483 1337 c5 -15 37 -22 37 -9 0 5 -9 12 -21 15 -13 3 -19 1 -16 -6z"/>
<path d="M2223 1338 c-38 -13 -45 -33 -8 -24 37 9 75 25 75 31 0 8 -31 4 -67
-7z"/>
<path d="M4840 1340 c0 -5 9 -10 21 -10 11 0 17 5 14 10 -3 6 -13 10 -21 10
-8 0 -14 -4 -14 -10z"/>
<path d="M1550 1330 c-14 -3 -20 -8 -15 -11 6 -3 21 -3 35 1 14 3 20 8 15 11
-6 3 -21 3 -35 -1z"/>
<path d="M1253 1309 c-35 -11 -63 -25 -63 -30 0 -7 8 -8 18 -4 9 3 48 15 86
25 38 11 71 22 74 25 12 11 -57 2 -115 -16z"/>
<path d="M5010 1268 c0 -119 13 -378 19 -378 3 0 5 30 4 67 -1 38 -2 137 -3
221 0 94 -4 152 -10 152 -6 0 -10 -27 -10 -62z"/>
<path d="M472 1308 c3 -7 13 -15 24 -17 16 -3 17 -1 5 13 -16 19 -34 21 -29 4z"/>
<path d="M2230 1283 c-72 -33 -52 -40 24 -10 32 13 52 26 45 29 -8 3 -39 -6
-69 -19z"/>
<path d="M4815 1300 c-8 -12 25 -21 42 -11 12 6 10 9 -11 13 -15 3 -29 2 -31
-2z"/>
<path d="M1733 1287 c-63 -12 -73 -32 -10 -22 50 9 113 34 82 33 -11 0 -44 -5
-72 -11z"/>
<path d="M965 1259 c-43 -16 -84 -34 -90 -40 -12 -14 -4 -12 110 27 44 15 84
31 90 35 18 18 -31 8 -110 -22z"/>
<path d="M1535 1270 c3 -5 15 -10 25 -10 10 0 22 5 25 10 4 6 -7 10 -25 10
-18 0 -29 -4 -25 -10z"/>
<path d="M460 1250 c0 -5 7 -10 16 -10 8 0 12 5 9 10 -3 6 -10 10 -16 10 -5 0
-9 -4 -9 -10z"/>
<path d="M1253 1238 c-40 -11 -73 -25 -73 -30 0 -6 10 -8 23 -4 12 4 55 15 95
26 41 10 76 21 80 24 12 12 -56 4 -125 -16z"/>
<path d="M1990 1240 c-26 -14 -30 -19 -15 -19 11 0 36 8 55 19 26 14 30 19 15
19 -11 0 -36 -8 -55 -19z"/>
<path d="M4800 1250 c0 -5 10 -10 23 -10 18 0 19 2 7 10 -19 13 -30 13 -30 0z"/>
<path d="M2251 1226 c-36 -12 -66 -27 -69 -34 -2 -7 27 -1 70 14 80 28 83 30
71 37 -4 2 -37 -5 -72 -17z"/>
<path d="M1736 1226 c-27 -7 -51 -17 -53 -23 -3 -8 7 -9 34 -2 21 5 50 12 66
15 15 4 27 10 27 15 0 11 -10 10 -74 -5z"/>
<path d="M1540 1220 c0 -5 6 -10 14 -10 8 0 18 5 21 10 3 6 -3 10 -14 10 -12
0 -21 -4 -21 -10z"/>
<path d="M2035 1203 c-120 -49 -148 -63 -142 -69 6 -7 204 72 222 88 17 15
-19 7 -80 -19z"/>
<path d="M2897 1214 c-16 -9 -26 -18 -23 -21 7 -8 66 17 66 28 0 12 -10 11
-43 -7z"/>
<path d="M455 1210 c3 -5 10 -10 16 -10 5 0 9 5 9 10 0 6 -7 10 -16 10 -8 0
-12 -4 -9 -10z"/>
<path d="M4770 1210 c0 -5 12 -10 28 -10 21 0 24 2 12 10 -20 13 -40 13 -40 0z"/>
<path d="M941 1184 c-67 -25 -78 -31 -69 -39 2 -3 39 8 81 23 43 16 74 31 71
35 -9 9 -8 9 -83 -19z"/>
<path d="M1290 1178 c-107 -20 -118 -23 -107 -34 7 -7 190 26 209 37 26 16 0
15 -102 -3z"/>
<path d="M2921 1175 c-30 -14 -51 -28 -47 -32 8 -8 106 37 106 49 0 11 3 11
-59 -17z"/>
<path d="M2263 1159 c-51 -16 -93 -34 -93 -40 0 -7 8 -8 18 -4 9 3 56 18 105
33 48 15 87 30 87 34 0 12 -18 9 -117 -23z"/>
<path d="M445 1171 c-3 -5 2 -11 10 -15 8 -3 17 -1 20 3 3 5 -2 11 -10 15 -8
3 -17 1 -20 -3z"/>
<path d="M1545 1170 c-3 -5 3 -10 14 -10 12 0 21 5 21 10 0 6 -6 10 -14 10 -8
0 -18 -4 -21 -10z"/>
<path d="M1746 1167 c-22 -7 -41 -18 -44 -26 -3 -8 1 -11 9 -8 8 3 31 11 52
18 20 7 37 16 37 21 0 10 -5 9 -54 -5z"/>
<path d="M2001 1130 c-95 -39 -108 -46 -99 -55 2 -2 51 15 107 39 57 24 99 46
94 49 -4 3 -50 -12 -102 -33z"/>
<path d="M2669 1150 c-32 -26 -3 -27 31 0 19 15 21 20 9 20 -9 0 -27 -9 -40
-20z"/>
<path d="M4735 1160 c3 -5 22 -10 41 -10 21 0 33 4 29 10 -3 6 -22 10 -41 10
-21 0 -33 -4 -29 -10z"/>
<path d="M4961 1093 c0 -53 3 -72 9 -58 12 28 12 135 0 135 -6 0 -10 -32 -9
-77z"/>
<path d="M2938 1132 c-32 -15 -58 -31 -58 -35 0 -11 35 1 100 34 70 36 35 36
-42 1z"/>
<path d="M933 1109 c-29 -11 -53 -25 -53 -30 0 -5 24 0 53 11 28 11 60 20 70
20 9 0 17 5 17 10 0 15 -29 11 -87 -11z"/>
<path d="M1555 1120 c-3 -5 1 -10 9 -10 9 0 16 5 16 10 0 6 -4 10 -9 10 -6 0
-13 -4 -16 -10z"/>
<path d="M2720 1123 c-27 -10 -81 -45 -77 -50 6 -5 107 45 107 52 0 6 -10 5
-30 -2z"/>
<path d="M4700 1122 c0 -11 34 -22 70 -22 34 0 13 16 -32 24 -22 4 -38 3 -38
-2z"/>
<path d="M445 1110 c3 -5 10 -10 16 -10 5 0 9 5 9 10 0 6 -7 10 -16 10 -8 0
-12 -4 -9 -10z"/>
<path d="M2278 1088 c-49 -16 -88 -34 -88 -40 0 -11 0 -11 117 29 46 15 83 31
83 36 0 11 -20 7 -112 -25z"/>
<path d="M3283 1108 c-13 -6 -23 -15 -23 -20 0 -11 2 -11 51 12 35 16 39 19
19 19 -14 0 -35 -5 -47 -11z"/>
<path d="M1305 1094 c-104 -16 -155 -31 -155 -46 0 -6 7 -7 18 -3 9 4 72 17
140 28 72 12 117 24 110 29 -7 4 -15 7 -18 7 -3 -1 -45 -8 -95 -15z"/>
<path d="M1718 1098 c-21 -6 -38 -14 -38 -19 0 -5 3 -9 6 -9 13 0 114 32 114
36 0 7 -42 3 -82 -8z"/>
<path d="M2956 1076 c-43 -18 -73 -36 -67 -40 6 -4 48 11 93 33 101 48 83 53
-26 7z"/>
<path d="M1986 1065 c-80 -35 -112 -55 -87 -55 7 0 43 14 81 30 38 17 72 30
77 30 5 0 18 7 29 15 19 14 19 14 -1 14 -11 0 -56 -16 -99 -34z"/>
<path d="M4626 1081 c20 -22 142 -42 130 -22 -3 4 -25 11 -48 15 -24 4 -54 10
-68 13 -19 4 -22 3 -14 -6z"/>
<path d="M2697 1061 c-36 -17 -68 -41 -55 -41 9 0 118 51 118 56 0 8 -26 2
-63 -15z"/>
<path d="M948 1056 c-38 -12 -60 -26 -39 -26 29 0 100 23 95 31 -6 11 -8 10
-56 -5z"/>
<path d="M3305 1045 c-29 -14 -42 -23 -30 -24 11 0 43 11 70 24 29 14 42 23
30 24 -11 0 -42 -11 -70 -24z"/>
<path d="M430 1056 c0 -2 7 -6 15 -10 8 -3 15 -1 15 4 0 6 -7 10 -15 10 -8 0
-15 -2 -15 -4z"/>
<path d="M1715 1043 c-43 -15 -68 -33 -44 -32 24 1 103 36 93 41 -5 3 -27 -1
-49 -9z"/>
<path d="M2360 1049 c-112 -30 -210 -63 -210 -71 0 -12 11 -10 97 17 43 13 97
29 121 35 23 6 42 15 42 20 0 12 -3 11 -50 -1z"/>
<path d="M2970 1034 c-71 -28 -76 -31 -67 -40 8 -8 147 47 147 58 0 11 -7 10
-80 -18z"/>
<path d="M4842 1048 c3 -7 28 -87 57 -178 121 -377 218 -650 232 -650 11 0 -7
61 -66 215 -30 77 -70 194 -90 260 -62 207 -117 365 -127 365 -6 0 -8 -6 -6
-12z"/>
<path d="M704 1025 c-15 -11 -16 -14 -3 -15 8 0 24 7 35 15 15 11 16 14 3 15
-8 0 -24 -7 -35 -15z"/>
<path d="M1336 1024 c-142 -19 -179 -28 -184 -43 -3 -9 0 -12 10 -8 8 3 62 13
119 22 140 22 176 30 164 36 -6 3 -54 0 -109 -7z"/>
<path d="M1973 991 c-94 -37 -132 -60 -78 -47 48 12 184 66 190 77 10 15 -15
9 -112 -30z"/>
<path d="M3744 1015 c-26 -19 1 -20 36 0 23 13 23 14 4 15 -11 0 -29 -7 -40
-15z"/>
<path d="M733 999 c-29 -18 -43 -39 -28 -39 10 0 75 45 75 53 0 12 -13 8 -47
-14z"/>
<path d="M2685 992 c-27 -15 -52 -28 -54 -29 -2 -2 -2 -6 1 -9 6 -6 128 53
128 61 0 11 -28 3 -75 -23z"/>
<path d="M3331 994 c-69 -26 -77 -31 -69 -40 3 -3 34 6 69 20 34 15 68 26 76
26 7 0 13 5 13 10 0 15 -18 12 -89 -16z"/>
<path d="M435 1000 c3 -5 10 -10 16 -10 5 0 9 5 9 10 0 6 -7 10 -16 10 -8 0
-12 -4 -9 -10z"/>
<path d="M948 1003 c-20 -5 -24 -23 -5 -23 6 1 26 7 42 15 29 13 29 13 5 13
-14 0 -33 -2 -42 -5z"/>
<path d="M2980 980 c-35 -16 -66 -34 -69 -41 -4 -13 -5 -14 82 26 37 17 67 33
67 38 0 11 -11 8 -80 -23z"/>
<path d="M2285 958 c-148 -42 -152 -44 -142 -55 4 -4 47 5 95 20 48 15 113 34
145 43 31 8 57 20 57 25 0 12 4 13 -155 -33z"/>
<path d="M3794 986 c-29 -13 -54 -36 -39 -36 10 0 85 40 85 45 0 8 -13 5 -46
-9z"/>
<path d="M1673 962 c-52 -17 -77 -32 -54 -32 17 0 151 41 151 46 0 8 -47 1
-97 -14z"/>
<path d="M750 949 c-43 -26 -45 -28 -37 -35 5 -5 97 43 97 52 0 10 -28 2 -60
-17z"/>
<path d="M1331 959 c-72 -14 -181 -51 -181 -62 0 -5 10 -6 23 -2 80 26 198 54
230 54 23 1 36 5 32 11 -7 12 -42 11 -104 -1z"/>
<path d="M3337 936 c-89 -34 -104 -42 -96 -51 5 -4 208 72 218 81 15 14 -47
-2 -122 -30z"/>
<path d="M2690 926 c-35 -17 -66 -36 -68 -43 -2 -6 28 5 65 24 76 41 78 41 72
47 -2 2 -33 -10 -69 -28z"/>
<path d="M3816 937 c-22 -12 -41 -28 -44 -35 -2 -8 22 1 54 19 73 40 71 39 48
39 -10 0 -37 -10 -58 -23z"/>
<path d="M950 940 c0 -5 6 -10 14 -10 8 0 18 5 21 10 3 6 -3 10 -14 10 -12 0
-21 -4 -21 -10z"/>
<path d="M1955 922 c-79 -28 -81 -30 -72 -38 7 -7 156 42 172 57 16 16 -27 8
-100 -19z"/>
<path d="M2963 919 c-40 -17 -73 -35 -73 -40 0 -5 2 -9 5 -9 15 0 145 64 145
71 0 11 7 13 -77 -22z"/>
<path d="M4741 903 c-18 -68 -49 -206 -66 -303 -22 -117 -50 -194 -61 -166 -8
20 6 125 42 320 21 111 24 152 11 135 -5 -5 -46 -228 -58 -311 -12 -80 -8
-193 6 -192 14 2 43 64 58 125 12 43 18 52 55 70 23 12 42 25 42 30 0 12 -6
11 -41 -7 -17 -8 -33 -14 -35 -12 -7 7 8 48 16 43 12 -7 56 32 47 41 -4 4 -13
2 -19 -4 -18 -18 -30 -14 -26 8 2 12 17 30 35 41 l31 20 7 -98 c16 -251 37
-459 46 -467 12 -13 12 12 -5 195 -8 85 -17 235 -21 334 -7 215 -10 235 -35
235 -14 0 -22 -11 -29 -37z m39 -47 c0 -25 -5 -35 -20 -39 -23 -6 -23 -6 -9
44 14 45 29 42 29 -5z m0 -79 c0 -16 -9 -26 -30 -34 -25 -9 -30 -9 -30 3 0 16
35 54 50 54 6 0 10 -10 10 -23z"/>
<path d="M2435 923 c-52 -12 -291 -87 -299 -95 -20 -17 31 -7 153 31 69 22
141 42 159 46 17 4 32 11 32 16 0 9 -11 10 -45 2z"/>
<path d="M3848 890 c-51 -27 -80 -50 -62 -50 14 0 143 65 143 73 1 13 -24 6
-81 -23z"/>
<path d="M763 883 c-24 -13 -43 -29 -43 -34 0 -14 4 -12 67 26 34 20 50 35 38
34 -11 -1 -39 -12 -62 -26z"/>
<path d="M1321 890 c-51 -11 -96 -22 -99 -25 -15 -14 14 -13 117 8 61 12 109
26 105 30 -9 9 -12 9 -123 -13z"/>
<path d="M1670 888 c-70 -22 -76 -25 -68 -34 8 -7 158 39 158 49 0 10 -17 8
-90 -15z"/>
<path d="M3365 879 c-93 -30 -123 -44 -114 -53 5 -5 198 60 208 70 14 14 -15
9 -94 -17z"/>
<path d="M3613 898 c-34 -16 -28 -28 7 -15 17 6 30 15 30 19 0 10 -10 9 -37
-4z"/>
<path d="M2691 870 c-35 -17 -61 -33 -58 -37 8 -7 137 49 137 59 0 13 -12 10
-79 -22z"/>
<path d="M3900 847 c-46 -23 -86 -48 -89 -56 -3 -10 10 -6 40 11 24 14 69 36
99 48 64 27 82 40 55 40 -11 -1 -58 -20 -105 -43z"/>
<path d="M4215 873 c-44 -24 -16 -27 36 -4 36 16 39 20 19 20 -14 0 -38 -7
-55 -16z"/>
<path d="M834 864 c-36 -19 -50 -32 -41 -40 3 -3 18 3 34 13 15 11 35 22 43
25 8 3 10 7 4 11 -6 3 -24 -1 -40 -9z"/>
<path d="M1943 856 c-98 -41 -75 -48 34 -9 52 18 69 34 36 32 -10 0 -41 -11
-70 -23z"/>
<path d="M2942 848 c-41 -17 -69 -35 -64 -40 5 -5 46 9 93 31 99 47 77 54 -29
9z"/>
<path d="M2449 866 c-2 -3 -76 -25 -164 -51 -88 -25 -161 -48 -164 -50 -17
-17 25 -10 160 29 163 47 209 62 209 71 0 6 -35 7 -41 1z"/>
<path d="M1337 835 c-49 -13 -91 -26 -94 -29 -16 -15 10 -12 115 13 62 15 109
30 105 34 -10 10 -29 8 -126 -18z"/>
<path d="M3631 838 c-19 -12 -30 -23 -24 -25 10 -4 83 35 83 43 0 10 -28 2
-59 -18z"/>
<path d="M4268 838 c-32 -11 -58 -24 -58 -30 0 -6 6 -8 13 -6 6 3 36 13 65 23
28 11 52 23 52 27 0 11 -6 10 -72 -14z"/>
<path d="M879 830 c-32 -26 -4 -27 36 0 27 18 28 20 9 20 -12 0 -32 -9 -45
-20z"/>
<path d="M3352 816 c-51 -18 -95 -36 -99 -39 -18 -19 12 -13 95 18 51 19 99
35 107 35 8 0 15 5 15 10 0 15 -17 12 -118 -24z"/>
<path d="M2683 814 c-46 -22 -69 -44 -46 -44 14 0 113 55 113 63 0 11 -10 8
-67 -19z"/>
<path d="M1685 813 c-65 -14 -108 -33 -74 -33 29 0 159 34 159 42 0 9 4 10
-85 -9z"/>
<path d="M2961 800 c-35 -15 -59 -30 -53 -34 5 -3 38 7 73 22 35 16 59 31 53
34 -5 4 -38 -6 -73 -22z"/>
<path d="M3958 806 c-76 -31 -155 -79 -140 -84 6 -2 35 10 64 26 29 16 74 37
101 47 26 10 47 22 47 26 0 13 -9 11 -72 -15z"/>
<path d="M4877 816 c-10 -8 -14 -17 -9 -20 5 -3 17 3 27 14 21 23 9 26 -18 6z"/>
<path d="M943 813 c-7 -2 -13 -9 -13 -14 0 -14 24 -11 46 6 19 14 19 14 -1 14
-11 0 -26 -3 -32 -6z"/>
<path d="M1945 798 c-59 -25 -60 -26 -52 -34 8 -8 117 37 117 48 0 12 -9 10
-65 -14z"/>
<path d="M2489 816 c-2 -3 -74 -25 -159 -50 -176 -50 -220 -66 -203 -73 6 -2
56 9 110 26 54 16 137 41 185 55 48 15 90 31 93 36 6 10 -17 15 -26 6z"/>
<path d="M3391 769 c-112 -42 -117 -44 -104 -52 12 -7 213 72 213 84 0 5 -1 9
-2 8 -2 0 -50 -18 -107 -40z"/>
<path d="M1008 789 c-18 -10 -25 -29 -10 -29 4 0 18 9 32 20 27 21 10 28 -22
9z"/>
<path d="M1330 773 c-95 -30 -96 -30 -87 -40 6 -6 156 35 212 58 50 20 -46 6
-125 -18z"/>
<path d="M3635 773 c-27 -14 -45 -28 -38 -30 11 -4 113 43 113 52 0 11 -28 3
-75 -22z"/>
<path d="M4266 771 c-28 -9 -52 -23 -54 -31 -3 -8 1 -11 9 -8 8 3 34 14 59 23
87 34 75 47 -14 16z"/>
<path d="M1080 765 c-14 -16 -10 -18 14 -9 9 3 16 10 16 15 0 14 -16 11 -30
-6z"/>
<path d="M2688 753 c-32 -14 -58 -30 -58 -34 0 -13 5 -12 58 15 26 12 58 28
72 34 21 9 22 11 5 11 -11 0 -46 -11 -77 -26z"/>
<path d="M4482 769 c-18 -5 -30 -14 -27 -19 5 -8 95 16 95 26 0 6 -32 3 -68
-7z"/>
<path d="M4874 755 c-15 -11 -16 -14 -3 -15 8 0 24 7 35 15 15 11 16 14 3 15
-8 0 -24 -7 -35 -15z"/>
<path d="M1658 742 c-27 -8 -48 -19 -48 -24 0 -11 6 -10 85 17 50 17 61 24 40
24 -16 -1 -51 -8 -77 -17z"/>
<path d="M2963 750 c-13 -5 -23 -12 -23 -15 0 -11 37 -4 56 10 22 17 4 20 -33
5z"/>
<path d="M1155 739 c-4 -6 -5 -13 -2 -16 7 -7 27 6 27 18 0 12 -17 12 -25 -2z"/>
<path d="M1930 732 c-32 -12 -39 -17 -25 -20 20 -3 95 23 95 33 0 8 -23 4 -70
-13z"/>
<path d="M4010 743 c-47 -16 -170 -77 -170 -85 0 -12 6 -10 63 19 29 14 77 37
107 49 46 20 46 33 0 17z"/>
<path d="M1343 723 c-29 -9 -53 -20 -53 -25 0 -6 10 -7 23 -3 12 4 46 12 75
18 28 6 52 14 52 19 0 12 -38 8 -97 -9z"/>
<path d="M2430 723 c-19 -9 -93 -33 -164 -55 -131 -39 -200 -68 -180 -75 6 -2
34 5 61 16 28 11 99 34 159 51 100 29 184 64 184 75 0 9 -24 4 -60 -12z"/>
<path d="M3686 732 c-3 -5 -23 -14 -45 -22 -23 -7 -41 -17 -41 -22 0 -13 14
-10 81 22 51 23 58 29 37 30 -15 0 -29 -4 -32 -8z"/>
<path d="M2985 717 c-10 -8 -14 -17 -9 -20 5 -3 21 3 34 14 29 22 6 28 -25 6z"/>
<path d="M3415 711 c-92 -34 -105 -40 -105 -51 0 -13 0 -14 62 14 31 14 72 28
92 31 20 4 39 11 42 16 9 15 -38 9 -91 -10z"/>
<path d="M4490 704 c-36 -13 -69 -25 -75 -27 -5 -3 -7 -7 -4 -11 7 -7 123 28
159 49 40 23 -3 17 -80 -11z"/>
<path d="M4903 717 c-22 -10 -31 -27 -15 -27 12 0 48 28 42 33 -3 2 -15 0 -27
-6z"/>
<path d="M2708 703 c-21 -8 -38 -19 -38 -24 0 -12 4 -12 45 8 19 9 35 20 35
25 0 10 3 10 -42 -9z"/>
<path d="M4263 708 c-31 -10 -45 -28 -23 -28 15 0 80 28 80 34 0 8 -19 6 -57
-6z"/>
<path d="M1423 693 c-7 -2 -13 -9 -13 -14 0 -10 61 0 75 12 10 10 -41 11 -62
2z"/>
<path d="M1661 679 c-13 -5 -22 -11 -19 -14 8 -8 108 8 102 16 -7 12 -52 10
-83 -2z"/>
<path d="M1920 675 c-23 -13 -23 -14 -4 -15 11 0 29 7 40 15 26 19 -1 20 -36
0z"/>
<path d="M3425 661 c-64 -18 -85 -28 -85 -40 0 -4 36 4 80 18 44 14 80 29 80
33 0 10 -4 10 -75 -11z"/>
<path d="M4895 659 c-25 -15 -26 -19 -10 -19 20 1 55 22 55 34 0 10 -13 6 -45
-15z"/>
<path d="M1501 661 c-7 -5 -9 -11 -4 -14 5 -3 15 -2 22 2 7 5 9 11 4 14 -5 3
-15 2 -22 -2z"/>
<path d="M3670 643 c-24 -15 -39 -28 -33 -30 11 -4 103 44 103 53 0 11 -29 1
-70 -23z"/>
<path d="M3953 639 c-40 -17 -73 -35 -73 -40 0 -14 12 -11 80 22 35 17 72 31
82 32 10 1 18 5 18 9 0 15 -35 7 -107 -23z"/>
<path d="M2395 634 c-44 -14 -124 -39 -179 -55 -54 -17 -95 -34 -90 -39 5 -4
56 7 114 25 58 19 138 43 178 55 39 11 72 25 72 30 0 13 -1 13 -95 -16z"/>
<path d="M2863 650 c-13 -5 -23 -14 -23 -20 0 -9 65 12 79 25 8 8 -33 4 -56
-5z"/>
<path d="M4273 650 c-13 -5 -23 -12 -23 -15 0 -11 37 -4 56 10 22 17 4 20 -33
5z"/>
<path d="M4490 634 c-71 -28 -76 -31 -67 -40 8 -8 147 45 147 57 0 12 -6 11
-80 -17z"/>
<path d="M1720 640 c-26 -16 -3 -22 27 -6 23 13 24 15 8 15 -11 1 -27 -3 -35
-9z"/>
<path d="M2684 635 c-25 -19 -3 -19 46 0 l35 13 -31 1 c-16 1 -39 -6 -50 -14z"/>
<path d="M1925 630 c-8 -13 5 -13 25 0 13 8 13 10 -2 10 -9 0 -20 -4 -23 -10z"/>
<path d="M2905 611 c-33 -15 -55 -30 -50 -33 13 -7 129 48 117 56 -5 3 -35 -7
-67 -23z"/>
<path d="M4918 617 c-16 -6 -28 -14 -28 -19 0 -15 27 -8 51 12 26 21 19 24
-23 7z"/>
<path d="M1783 613 c-23 -9 -14 -20 12 -15 14 2 22 8 19 13 -6 10 -12 10 -31
2z"/>
<path d="M3413 599 c-24 -11 -43 -24 -43 -29 0 -15 10 -12 70 20 62 33 40 40
-27 9z"/>
<path d="M1840 590 c0 -5 5 -10 10 -10 6 0 10 5 10 10 0 6 -4 10 -10 10 -5 0
-10 -4 -10 -10z"/>
<path d="M2430 575 c-122 -34 -163 -50 -168 -65 -3 -7 1 -10 9 -7 25 10 173
56 217 67 23 6 42 15 42 20 0 13 0 13 -100 -15z"/>
<path d="M2710 590 c0 -5 6 -10 14 -10 8 0 18 5 21 10 3 6 -3 10 -14 10 -12 0
-21 -4 -21 -10z"/>
<path d="M2943 569 c-56 -26 -87 -49 -65 -49 18 0 145 67 136 72 -5 3 -37 -8
-71 -23z"/>
<path d="M3693 587 c-17 -7 -35 -16 -40 -21 -11 -12 46 -1 88 18 31 13 32 14
9 14 -14 0 -39 -5 -57 -11z"/>
<path d="M3988 577 c-62 -24 -81 -37 -55 -37 16 0 147 46 156 55 12 13 -50 1
-101 -18z"/>
<path d="M4293 590 c-13 -5 -23 -14 -23 -19 0 -7 9 -6 25 1 14 6 25 15 25 20
0 9 2 9 -27 -2z"/>
<path d="M4933 578 c-21 -10 -32 -28 -18 -28 10 0 65 30 65 35 0 8 -23 4 -47
-7z"/>
<path d="M1938 573 c7 -3 16 -2 19 1 4 3 -2 6 -13 5 -11 0 -14 -3 -6 -6z"/>
<path d="M4462 552 c-29 -15 -50 -31 -46 -34 6 -7 124 48 124 57 0 11 -28 3
-78 -23z"/>
<path d="M2515 544 c-79 -19 -145 -43 -145 -55 0 -12 1 -12 41 5 19 8 67 22
107 31 39 10 72 22 72 26 0 11 0 11 -75 -7z"/>
<path d="M3433 542 c-18 -9 -33 -19 -33 -24 0 -12 11 -9 49 11 42 23 28 34
-16 13z"/>
<path d="M4718 542 c-28 -17 -36 -32 -18 -32 15 0 60 31 60 41 0 13 -11 11
-42 -9z"/>
<path d="M2705 540 c-3 -5 3 -10 14 -10 11 0 23 5 26 10 3 6 -3 10 -14 10 -11
0 -23 -4 -26 -10z"/>
<path d="M4008 523 c-32 -14 -58 -30 -58 -34 0 -16 24 -10 65 16 22 13 48 25
58 25 9 0 17 5 17 10 0 16 -21 12 -82 -17z"/>
<path d="M4945 532 c-16 -8 -25 -17 -19 -19 16 -5 64 15 64 27 0 13 -8 12 -45
-8z"/>
<path d="M2949 508 c-35 -18 -65 -38 -67 -45 -2 -7 25 2 60 20 35 18 77 37 93
44 30 11 30 11 4 12 -14 1 -55 -14 -90 -31z"/>
<path d="M3723 528 c-13 -6 -23 -15 -23 -20 0 -11 9 -9 55 12 34 16 36 19 15
19 -14 0 -35 -5 -47 -11z"/>
<path d="M4280 520 c0 -5 6 -10 14 -10 8 0 18 5 21 10 3 6 -3 10 -14 10 -12 0
-21 -4 -21 -10z"/>
<path d="M4473 490 c-35 -16 -63 -34 -63 -39 0 -6 2 -11 5 -11 13 0 135 65
135 72 0 12 -10 9 -77 -22z"/>
<path d="M2503 493 c-24 -8 -43 -19 -43 -25 0 -10 21 -5 90 23 34 14 39 18 20
18 -14 0 -44 -7 -67 -16z"/>
<path d="M3447 499 c-9 -6 -15 -14 -12 -19 6 -9 55 11 55 23 0 10 -22 8 -43
-4z"/>
<path d="M4314 495 c-10 -8 -14 -14 -9 -15 15 0 40 18 34 24 -3 3 -14 -1 -25
-9z"/>
<path d="M4962 490 c-20 -11 -29 -21 -22 -25 12 -8 60 20 60 35 0 6 -1 9 -2 9
-2 -1 -18 -9 -36 -19z"/>
<path d="M2725 490 c-3 -5 -2 -10 4 -10 5 0 13 5 16 10 3 6 2 10 -4 10 -5 0
-13 -4 -16 -10z"/>
<path d="M3763 488 c-13 -6 -23 -15 -23 -20 0 -12 11 -9 50 12 26 14 30 19 15
19 -11 0 -30 -5 -42 -11z"/>
<path d="M4030 482 c-45 -21 -45 -21 -37 -29 8 -8 87 27 87 39 0 11 -9 9 -50
-10z"/>
<path d="M4713 480 c-30 -18 -44 -40 -26 -40 8 0 83 51 83 56 0 10 -28 2 -57
-16z"/>
<path d="M3011 461 c-36 -15 -67 -33 -69 -40 -4 -13 4 -10 111 38 26 12 47 24
47 26 0 10 -28 3 -89 -24z"/>
<path d="M2572 469 c-35 -13 -17 -29 18 -16 30 11 41 28 18 26 -7 0 -23 -4
-36 -10z"/>
<path d="M3470 450 c0 -5 4 -10 9 -10 6 0 13 5 16 10 3 6 -1 10 -9 10 -9 0
-16 -4 -16 -10z"/>
<path d="M2630 440 c0 -5 5 -10 10 -10 6 0 10 5 10 10 0 6 -4 10 -10 10 -5 0
-10 -4 -10 -10z"/>
<path d="M3790 440 c-8 -5 -12 -11 -9 -14 7 -8 49 5 49 15 0 12 -21 11 -40 -1z"/>
<path d="M4045 433 c-24 -14 -26 -18 -12 -21 10 -2 32 6 50 17 25 16 28 21 12
20 -11 0 -33 -7 -50 -16z"/>
<path d="M4450 419 c-36 -17 -60 -33 -54 -36 11 -4 144 52 144 62 0 12 -28 3
-90 -26z"/>
<path d="M4973 438 c-13 -6 -23 -15 -23 -20 0 -14 16 -9 41 12 26 21 17 25
-18 8z"/>
<path d="M4703 420 c-28 -17 -44 -40 -28 -40 8 0 85 50 85 55 0 11 -27 4 -57
-15z"/>
<path d="M3041 414 c-19 -8 -32 -17 -28 -20 7 -8 87 17 87 28 0 12 -20 9 -59
-8z"/>
<path d="M4473 383 c-40 -20 -73 -40 -73 -45 0 -11 -3 -12 93 32 71 32 95 51
65 49 -7 0 -46 -16 -85 -36z"/>
<path d="M3840 400 l-25 -8 28 -1 c15 -1 27 4 27 9 0 6 -1 10 -2 9 -2 -1 -14
-5 -28 -9z"/>
<path d="M4083 393 c-14 -5 -18 -23 -5 -23 5 0 17 7 28 15 14 11 15 14 4 14
-8 0 -21 -3 -27 -6z"/>
<path d="M4718 384 c-25 -13 -38 -34 -22 -34 12 0 64 34 64 42 0 11 -11 9 -42
-8z"/>
<path d="M4984 385 c-10 -8 -14 -15 -7 -15 19 0 43 11 43 21 0 13 -14 11 -36
-6z"/>
<path d="M3090 380 c-12 -8 -12 -10 5 -10 11 0 27 5 35 10 12 8 12 10 -5 10
-11 0 -27 -5 -35 -10z"/>
<path d="M3887 358 c-15 -5 -25 -14 -21 -19 5 -8 64 16 64 26 0 7 -10 5 -43
-7z"/>
<path d="M3160 350 c0 -13 11 -13 30 0 12 8 11 10 -7 10 -13 0 -23 -4 -23 -10z"/>
<path d="M4478 339 c-21 -11 -38 -24 -38 -29 0 -15 6 -13 63 20 59 34 36 42
-25 9z"/>
<path d="M5001 346 c-13 -7 -19 -16 -13 -20 5 -3 21 3 33 14 27 22 16 26 -20
6z"/>
<path d="M3938 343 c-21 -5 -24 -23 -5 -23 7 0 22 7 33 15 20 15 9 18 -28 8z"/>
<path d="M4105 340 c-8 -13 15 -13 35 0 12 8 11 10 -7 10 -12 0 -25 -4 -28
-10z"/>
<path d="M4734 340 c-26 -10 -40 -30 -22 -30 17 0 55 26 48 33 -3 3 -15 1 -26
-3z"/>
<path d="M4000 300 c-8 -5 -12 -12 -9 -15 8 -8 39 5 39 16 0 11 -11 11 -30 -1z"/>
<path d="M4474 285 c-10 -8 -14 -15 -7 -15 19 0 43 11 43 21 0 13 -14 11 -36
-6z"/>
<path d="M4730 290 c-8 -5 -12 -12 -8 -15 9 -9 48 4 48 16 0 12 -21 11 -40 -1z"/>
<path d="M5010 290 c-22 -6 -23 -8 -7 -15 12 -5 24 -2 35 9 17 17 12 18 -28 6z"/>
<path d="M4050 260 c-12 -8 -11 -10 8 -10 12 0 22 5 22 10 0 13 -11 13 -30 0z"/>
<path d="M5036 240 c-11 -3 -15 -9 -10 -13 10 -6 42 9 34 16 -3 3 -14 1 -24
-3z"/>
<path d="M4480 230 c0 -5 4 -10 9 -10 6 0 13 5 16 10 3 6 -1 10 -9 10 -9 0
-16 -4 -16 -10z"/>
<path d="M4730 220 c0 -5 7 -10 15 -10 8 0 15 5 15 10 0 6 -7 10 -15 10 -8 0
-15 -4 -15 -10z"/>
</g>
</svg>
